<?xml version="1.0" encoding="iso-8859-1"?>
<!-- Generator: Adobe Illustrator 19.0.0, SVG Export Plug-In . SVG Version: 6.00 Build 0)  -->
<svg version="1.1" id="Layer_1" xmlns="http://www.w3.org/2000/svg" xmlns:xlink="http://www.w3.org/1999/xlink" x="0px" y="0px"
	 viewBox="0 0 258.684 258.684" style="enable-background:new 0 0 258.684 258.684;" xml:space="preserve">
<g>
	<g>
		<path d="M215.768,256.304c-0.376-1.924-9.216-47.228-14.896-59.2c-1.964-4.132-6.54-7.78-11.612-9.756
			c0.208-0.212,0.432-0.436,0.608-0.616c0.66-0.684,0.892-1.668,0.604-2.576c-0.288-0.916-1.056-1.596-2-1.78l-38.028-7.4
			l-2.984-17.48c17.312-11.148,39.348-34.612,39.348-70.404c0-5.572-0.572-13.46-2.928-21.664c0.372-0.888,3.68-9.152,0.7-16.22
			c-1.412-3.344-3.984-5.844-7.664-7.44c-0.208-1.468-0.88-4.44-2.852-7.252c0.004-0.068,0.012-0.136,0.012-0.208
			C174.076,15.392,154.012,0,129.348,0S84.62,15.392,84.62,34.308c0,0.904,0.116,1.82,0.228,2.728c-0.884,1.932-1.252,3.7-1.4,4.728
			c-3.68,1.596-6.256,4.096-7.668,7.44c-2.084,4.952-1.08,10.464-0.16,13.664c-3.028,9.104-3.736,18.072-3.736,24.22
			c0,35.792,22.036,59.256,39.348,70.404l-2.984,17.48l-38.028,7.4c-0.944,0.184-1.712,0.864-2,1.78
			c-0.284,0.904-0.056,1.892,0.604,2.576c0.16,0.168,0.372,0.38,0.564,0.572c-5.02,1.98-9.6,5.664-11.568,9.804
			c-5.68,11.976-14.52,57.276-14.896,59.2l-0.46,2.38H216.22L215.768,256.304z M187.52,185.076
			c-4.968,5.088-21.2,19.984-40.64,19.984c-13.72,0-15.784-8.248-16.172-11.184c0.016-0.168,0.028-0.312,0.032-0.436
			c1.012-0.5,1.948-1.036,2.872-1.572c0.332,1.556,1.072,3.56,2.748,5.332c2.464,2.604,6.212,3.92,11.14,3.92
			c16.532,0,30.136-13.784,33.364-17.34L187.52,185.076z M140.76,239.22c0.132-0.176,0.3-0.304,0.392-0.552
			c0.568-1.56,1.152-3.112,1.736-4.664c0.492-1.308,0.98-2.616,1.464-3.928c0.024-0.072,0.064-0.088,0.092-0.128
			c0.824-0.12,1.58-0.436,2.156-0.988c0.056,0.532,0.16,1.048,0.16,1.596c0,4.96-2.356,9.336-5.952,12.224v-3.456
			C140.804,239.284,140.764,239.256,140.76,239.22z M122.832,242.456v-2.452h16.388v2.452H122.832z M138.984,244.044
			c-2.344,1.388-5.04,2.236-7.956,2.236c-2.916,0-5.612-0.848-7.956-2.236H138.984z M122.804,238.42
			c-0.416-0.02-0.46-0.036-0.588-0.396c-0.752-2.088-1.536-4.164-2.32-6.24l-0.732-1.94c0.524-0.144,0.996-0.38,1.408-0.716
			c0.456,0.484,0.904,0.972,1.352,1.46l0.968,1.048c0.092,0.104,0.204,0.196,0.336,0.308l0.18,0.152
			c0.2,0.172,0.476,0.24,0.74,0.168c0.256-0.072,0.464-0.272,0.544-0.528l0.072-0.216c0.06-0.196,0.108-0.348,0.144-0.504
			l0.456-1.884c0.296-1.224,0.592-2.44,0.9-3.66c0.544-0.008,1.06-0.116,1.536-0.312l2.184,5.628c0.044,0.116,0.1,0.228,0.248,0.496
			c0.12,0.24,0.396,0.352,0.664,0.38c0.276,0.044,0.576-0.136,0.744-0.34c0.052-0.064,0.184-0.268,0.212-0.344l0.948-2.44
			c0.468-1.2,0.932-2.404,1.404-3.604c0.364,0.108,0.724,0.228,1.124,0.228c0.084,0,0.156-0.044,0.236-0.048
			c0.308,1.244,0.612,2.488,0.916,3.732l0.58,2.372c0.044,0.192,0.124,0.344,0.28,0.644c0.112,0.24,0.336,0.404,0.592,0.444
			c0.276,0.032,0.524-0.052,0.704-0.248l2.768-2.976c0.392,0.336,0.844,0.58,1.348,0.74c-0.444,1.212-0.896,2.42-1.356,3.628
			c-0.584,1.552-1.168,3.108-1.74,4.672c-0.108,0.296-0.104,0.284-0.412,0.296C133.756,238.392,128.276,238.392,122.804,238.42z
			 M143.908,222.232c-2.156,0-3.912,1.752-3.912,3.912c0,0.6,0.16,1.152,0.404,1.66c0,0.012-0.008,0.024-0.008,0.036l-2.004,2.148
			l-0.372-1.516c-0.296-1.224-0.592-2.452-0.916-3.764c1.332-0.664,2.276-2.008,2.276-3.596c0-2.236-1.816-4.052-4.052-4.052
			c-2.236,0-4.052,1.816-4.052,4.052c0,1.256,0.612,2.34,1.512,3.08c-0.492,1.256-0.98,2.512-1.472,3.768l-0.36,0.944l-1.828-4.628
			c0.756-0.748,1.224-1.788,1.224-2.932c0-2.28-1.856-4.136-4.136-4.136c-2.28,0-4.136,1.856-4.136,4.136
			c0,1.744,1.092,3.22,2.62,3.828c-0.3,1.192-0.592,2.388-0.88,3.588l-0.296,1.224l-0.428-0.464c-0.496-0.54-1-1.076-1.512-1.612
			c0.276-0.536,0.472-1.12,0.472-1.764c0-2.156-1.752-3.912-3.912-3.912c-0.164,0-0.304,0.072-0.464,0.092
			c2.776-4.484,7.696-7.5,13.344-7.5s10.572,3.02,13.344,7.504C144.212,222.308,144.072,222.232,143.908,222.232z M145.536,224.492
			c0.268,0.644,0.444,1.328,0.624,2.012c-0.176,1.1-1.096,1.964-2.252,1.964c-1.28,0-2.324-1.044-2.324-2.324
			c0-1.28,1.044-2.324,2.324-2.324C144.544,223.82,145.116,224.076,145.536,224.492z M135.324,223.572
			c-1.36,0-2.464-1.104-2.464-2.464s1.104-2.464,2.464-2.464s2.464,1.104,2.464,2.464
			C137.792,222.468,136.684,223.572,135.324,223.572z M128.772,221.34c0,1.408-1.144,2.552-2.552,2.552
			c-1.408,0-2.552-1.144-2.552-2.552c0-1.408,1.144-2.552,2.552-2.552C127.628,218.788,128.772,219.932,128.772,221.34z
			 M118.144,223.816c1.28,0,2.324,1.044,2.324,2.324c0,1.28-1.044,2.324-2.324,2.324c-1.156,0-2.072-0.86-2.252-1.968
			c0.184-0.68,0.36-1.364,0.628-2.008C116.94,224.076,117.512,223.816,118.144,223.816z M117.496,229.92
			c0.012,0.024,0.016,0.036,0.028,0.06l0.892,2.364c0.78,2.068,1.564,4.136,2.312,6.216c0.124,0.344,0.332,0.54,0.524,0.756
			l-0.004,0.004v3.452c-3.596-2.884-5.948-7.26-5.948-12.22c-0.004-0.544,0.104-1.064,0.16-1.596
			C116.008,229.476,116.72,229.784,117.496,229.92z M131.028,212.552c-9.768,0-17.704,7.836-17.952,17.548l-26.12-9.504v-19.832
			c7.056,3.96,15.588,7.128,24.86,7.128c10.992,0.004,15.596-4.868,17.536-9.048c1.944,4.18,6.552,9.052,17.528,9.052
			c9.268,0,17.804-3.168,24.86-7.128v19.828l-22.88,8.324C148.02,219.768,140.392,212.552,131.028,212.552z M129.288,190.928
			c-9.784-4.796-15.332-11.784-17.224-14.492l2.856-16.732c6.252,3.56,11.56,5.352,14.428,5.352c2.868,0,8.176-1.792,14.436-5.348
			l2.856,16.732c-1.892,2.704-7.444,9.696-17.228,14.492c-0.024,0.012-0.04,0.032-0.06,0.04
			C129.328,190.96,129.312,190.94,129.288,190.928z M149.272,177.632l30.292,5.896c-3.804,4.072-16.632,16.46-32.056,16.46
			c-4.596,0-8.064-1.196-10.304-3.556c-1.644-1.728-2.264-3.724-2.52-5.168C143.008,186.156,147.764,179.856,149.272,177.632z
			 M182.1,97.492c-6.664,0.28-11.048-6.972-16.06-15.372c-5.288-8.872-11.204-18.776-21.224-21.12
			c6.668-3.736,12.76-6.4,17.748-7.104c6.232,2.716,11.884,6.14,16.612,10.136c2.956,8.648,3.636,17.22,3.636,23.06
			C182.812,90.696,182.548,94.152,182.1,97.492z M130.04,43.984c-17.28,0-35.344,5.872-48.592,15.748
			c0.52-4.7,3.04-7.968,7.508-9.72l0.34-0.132l0.02-0.368c0.004-0.056,0.32-5.724,4.68-9.176c3.188-2.524,7.724-3.264,13.488-2.204
			l0.488,0.092l0.152-0.476c0.056-0.168,5.516-16.628,21.92-16.628c16.4,0,21.864,16.464,21.916,16.628l0.152,0.476l0.488-0.092
			c5.752-1.064,10.288-0.328,13.476,2.196c4.356,3.444,4.684,9.128,4.688,9.184l0.02,0.368l0.34,0.132
			c4.468,1.752,6.988,5.02,7.508,9.72C165.384,49.856,147.32,43.984,130.04,43.984z M129.348,4c20.752,0,37.892,11.62,40.38,26.572
			c-3.62-2.208-8.256-2.992-13.94-2.144c-1.752-4.132-8.892-18.052-25.608-18.052c-16.708,0-23.848,13.92-25.6,18.052
			c-6.5-0.964-11.692,0.068-15.46,3.072c-0.092,0.076-0.164,0.16-0.256,0.236C90.628,16.228,108.064,4,129.348,4z M78.396,50.304
			c1.2-2.844,3.512-4.94,6.876-6.224l0.868-0.332l0.044-0.924c0.004-0.056,0.324-5.632,4.7-9.112
			c2.344-1.868,5.432-2.804,9.224-2.804c1.584,0,3.296,0.164,5.124,0.492l1.212,0.216l0.388-1.168
			c0.232-0.704,5.908-17.244,23.364-17.244c17.444,0,23.116,16.54,23.348,17.244l0.388,1.168l1.212-0.22
			c6.168-1.104,10.996-0.34,14.324,2.292c4.368,3.452,4.724,9.08,4.728,9.136l0.052,0.924l0.86,0.328
			c3.356,1.28,5.668,3.372,6.868,6.212c1.832,4.328,0.756,9.48-0.068,12.216c-0.636-0.56-1.368-1.06-2.04-1.6
			c-0.208-5.644-2.964-9.724-7.988-11.82c-0.14-1.396-0.928-6.36-5.076-9.644c-3.372-2.668-8.056-3.504-13.92-2.512
			c-1.056-2.78-7.204-16.948-22.836-16.948c-15.624,0-21.768,14.168-22.824,16.948c-5.868-1-10.56-0.156-13.92,2.512
			c-4.144,3.284-4.936,8.248-5.08,9.644c-5.028,2.096-7.784,6.18-7.988,11.832l-0.008,0.212c-0.572,0.464-1.208,0.892-1.756,1.376
			C77.636,59.78,76.564,54.644,78.396,50.304z M75.888,87.088c0-5.408,0.588-13.156,3.02-21.14
			c12.184-11.532,32.292-18.984,51.276-18.984c9.348,0,18.956,1.824,27.768,5.032c-11.5,3.4-26.476,13.66-41.044,23.644
			c-15.424,10.568-31.272,21.44-40.304,21.872C76.152,94.164,75.888,90.7,75.888,87.088z M77.004,100.316
			c9.908-0.712,25.296-11.236,41.5-22.34c7.516-5.152,15.14-10.368,22.268-14.64c10.936,0.312,16.984,10.428,22.832,20.232
			c5.16,8.656,10.068,16.88,18,16.88c0.02,0,0.044-0.008,0.064-0.008c-6.992,40.28-44.152,60.62-52.32,60.62
			C121.172,161.056,83.94,140.68,77.004,100.316z M109.364,177.644c0.316,0.436,0.696,0.928,1.144,1.476
			c2.048,2.704,6.132,7.304,12.34,11.26c-0.216,1.452-0.828,3.648-2.592,5.504c-2.244,2.36-5.708,3.556-10.304,3.556
			c-14.652,0-26.968-11.188-31.42-15.796L109.364,177.644z M77.208,183.9c4.076,4.324,17.08,16.672,32.74,16.672
			c4.928,0,8.676-1.32,11.14-3.92c1.776-1.876,2.492-4.008,2.796-5.592c1.264,0.76,2.6,1.492,4.032,2.168
			c-0.144,2.776-1.724,11.836-16.1,11.836c-19.44,0-35.672-14.896-40.644-19.984L77.208,183.9z M75.164,254.684H47.332
			c1.932-9.66,9.364-45.86,14.112-55.868c1.748-3.684,6.54-7.064,11.204-8.412c0.76,0.684,1.608,1.416,2.516,2.172V254.684z
			 M181.268,254.684H77.428V194.4c2.144,1.664,4.572,3.388,7.264,5.032v22.756l28.544,10.384c1.02,8.964,8.564,15.976,17.792,15.976
			c9.664,0,17.516-7.68,17.92-17.248l25.056-9.116v-22.752c2.692-1.644,5.124-3.368,7.264-5.032V254.684z M183.536,254.684V192.58
			c0.9-0.752,1.744-1.476,2.496-2.156c4.732,1.36,9.484,4.728,11.22,8.392c4.748,10.004,12.18,46.204,14.112,55.868H183.536z"/>
	</g>
</g>
<g>
</g>
<g>
</g>
<g>
</g>
<g>
</g>
<g>
</g>
<g>
</g>
<g>
</g>
<g>
</g>
<g>
</g>
<g>
</g>
<g>
</g>
<g>
</g>
<g>
</g>
<g>
</g>
<g>
</g>
</svg>
