<?xml version="1.0" encoding="iso-8859-1"?>
<!-- Generator: Adobe Illustrator 19.0.0, SVG Export Plug-In . SVG Version: 6.00 Build 0)  -->
<svg version="1.1" id="Layer_1" xmlns="http://www.w3.org/2000/svg" xmlns:xlink="http://www.w3.org/1999/xlink" x="0px" y="0px"
	 viewBox="0 0 290.254 290.254" style="enable-background:new 0 0 290.254 290.254;" xml:space="preserve">
<g>
	<g>
		<g>
			<path d="M290.092,162.94l-25.94-105.284c-0.348-1.42-1.236-2.624-2.496-3.388c-1.256-0.752-2.736-0.988-4.152-0.632
				l-24.648,6.072l-6.484-14.588c-0.592-1.336-1.676-2.364-3.048-2.896c-1.376-0.528-2.868-0.488-4.2,0.104l-104.8,46.584
				l-0.06,0.016c-0.212,0.052-0.4,0.156-0.576,0.268l-29.376,13.056c-0.976,0.432-1.432,1.568-1.032,2.56
				c0.244,0.6,0.388,1.216,0.536,1.832c-2.02-1.716-3.576-3.992-4.336-6.684c-0.288-1.032-1.344-1.64-2.384-1.388L28.04,110.656
				c-2.936,0.732-4.736,3.712-4.012,6.648l2.724,11.048L3.26,138.796c-2.764,1.232-4.016,4.484-2.788,7.248l44.044,99.088
				c0.592,1.34,1.676,2.368,3.052,2.896c0.644,0.248,1.312,0.372,1.976,0.372c0.756,0,1.512-0.16,2.224-0.476l46.328-20.592
				c0.532-0.236,0.932-0.692,1.096-1.248c0.168-0.56,0.08-1.16-0.24-1.644c-0.38-0.584-0.736-1.2-1.028-1.86
				c-0.844-1.904-1.164-3.9-1.12-5.868l9.04-2.228c0.564-0.136,1.036-0.516,1.296-1.036c0.26-0.516,0.284-1.12,0.06-1.656
				c-0.272-0.648-0.512-1.312-0.688-2.024c-1.196-4.844,0.336-9.748,3.764-13.06c0.272,0.172,0.528,0.388,0.664,0.7
				c0.116,0.256,0.156,0.552,0.124,0.868c-0.068,0.64,0.18,1.276,0.668,1.704c0.488,0.424,1.148,0.596,1.776,0.432
				c6.412-1.556,13.04,1.68,15.728,7.732c0.296,0.66,0.512,1.336,0.696,2.016c0.152,0.56,0.54,1.028,1.064,1.276
				c0.268,0.124,0.56,0.192,0.852,0.192c0.276,0,0.548-0.06,0.808-0.172l20.512-9.116l132.908-32.748
				c1.42-0.348,2.62-1.236,3.38-2.492C290.216,165.844,290.444,164.364,290.092,162.94z M220.736,45.956
				c0.368-0.168,0.776-0.176,1.16-0.024c0.384,0.144,0.684,0.428,0.848,0.796l6.196,13.944l-92.696,22.84L220.736,45.956z
				 M50.156,244.3c-0.364,0.16-0.772,0.168-1.16,0.028c-0.384-0.148-0.684-0.432-0.848-0.8L4.1,144.432
				c-0.34-0.768,0.008-1.668,0.776-2.012l22.844-10.152l22.256,90.32c0.348,1.42,1.236,2.624,2.496,3.384
				c0.872,0.528,1.844,0.796,2.832,0.796c0.44,0,0.88-0.052,1.316-0.16l36.2-8.92c0.08,2.184,0.54,4.384,1.48,6.496
				c0.06,0.136,0.124,0.272,0.188,0.408L50.156,244.3z M109.808,191.196c0.052,0.208,0.112,0.412,0.188,0.608
				c-6.152,4.092-9.144,11.572-7.336,18.904c0.036,0.148,0.076,0.296,0.116,0.44l-47.108,11.604c-0.396,0.092-0.8,0.032-1.148-0.18
				c-0.348-0.212-0.596-0.544-0.692-0.936l-25.94-105.284c-0.2-0.816,0.3-1.644,1.112-1.848l47.288-11.648
				c2.436,6.044,8.032,10.256,14.496,10.932c0.028,0.216,0.068,0.428,0.12,0.64c0.324,1.304,1.092,2.416,2.12,3.18
				c-0.556,1.152-0.724,2.492-0.404,3.796c0.324,1.308,1.092,2.416,2.12,3.184c-0.556,1.156-0.724,2.496-0.404,3.796
				c0.324,1.304,1.092,2.416,2.12,3.18c-0.556,1.156-0.724,2.492-0.4,3.796c0.324,1.308,1.092,2.416,2.12,3.184
				c-0.556,1.152-0.724,2.492-0.404,3.796c0.324,1.308,1.092,2.416,2.12,3.184c-0.556,1.152-0.724,2.496-0.4,3.8
				c0.324,1.3,1.092,2.412,2.12,3.176c-0.556,1.152-0.724,2.492-0.4,3.796c0.324,1.308,1.092,2.416,2.12,3.184
				c-0.556,1.152-0.724,2.496-0.4,3.8c0.324,1.304,1.092,2.412,2.12,3.176c-0.556,1.156-0.724,2.496-0.4,3.8
				c0.324,1.304,1.092,2.416,2.12,3.18c-0.556,1.156-0.724,2.492-0.404,3.796c0.324,1.308,1.092,2.416,2.12,3.184
				c-0.556,1.152-0.724,2.492-0.4,3.796c0.324,1.308,1.092,2.416,2.12,3.184C109.652,188.552,109.484,189.892,109.808,191.196z
				 M133.036,206.944c-0.052-0.144-0.112-0.28-0.172-0.416c-2.88-6.484-9.264-10.476-16.1-10.476c-0.676,0-1.36,0.04-2.04,0.116
				c-0.044-0.124-0.096-0.248-0.152-0.372c-0.248-0.564-0.624-1.02-1.04-1.44c0.048-0.024,0.088-0.06,0.136-0.084
				c0.58-0.288,0.98-0.84,1.076-1.48s-0.128-1.284-0.592-1.732c-0.236-0.224-0.4-0.504-0.476-0.804
				c-0.188-0.768,0.188-1.584,0.904-1.932c0.84-0.412,1.28-1.352,1.056-2.256c-0.228-0.912-1.092-1.516-1.992-1.508
				c-0.776-0.024-1.5-0.516-1.688-1.284c-0.188-0.764,0.188-1.576,0.904-1.92c0.84-0.412,1.284-1.352,1.06-2.256
				c-0.224-0.912-0.98-1.46-1.988-1.512c-0.92-0.056-1.508-0.516-1.696-1.288c-0.188-0.764,0.192-1.576,0.904-1.92
				c0.84-0.412,1.284-1.352,1.06-2.256c-0.224-0.912-1.02-1.452-1.984-1.512c-0.892,0.036-1.504-0.516-1.696-1.284
				c-0.188-0.764,0.188-1.58,0.904-1.92c0.84-0.412,1.284-1.352,1.06-2.256c-0.224-0.912-0.98-1.448-1.988-1.512
				c-0.784-0.044-1.504-0.52-1.696-1.284c-0.188-0.768,0.188-1.584,0.9-1.924c0.84-0.412,1.284-1.352,1.06-2.256
				c-0.224-0.908-1.02-1.44-1.984-1.512c-0.896,0.02-1.504-0.516-1.696-1.288c-0.188-0.768,0.188-1.576,0.904-1.92
				c0.84-0.412,1.284-1.352,1.06-2.256s-0.98-1.432-1.988-1.512c-0.948-0.052-1.508-0.52-1.696-1.28
				c-0.188-0.768,0.188-1.584,0.9-1.924c0.84-0.412,1.284-1.352,1.06-2.256c-0.224-0.908-1.024-1.428-1.984-1.512
				c-0.9,0.004-1.504-0.516-1.692-1.284c-0.188-0.768,0.188-1.584,0.9-1.924c0.84-0.412,1.284-1.352,1.06-2.256
				c-0.22-0.912-0.976-1.516-1.984-1.512c-0.832-0.004-1.504-0.512-1.696-1.288c-0.188-0.764,0.188-1.58,0.904-1.92
				c0.84-0.412,1.284-1.352,1.06-2.256c-0.224-0.912-1.028-1.508-1.988-1.512c-0.916-0.024-1.508-0.516-1.696-1.28
				c-0.188-0.768,0.192-1.584,0.904-1.932c0.84-0.412,1.28-1.352,1.056-2.26c-0.228-0.908-1.004-1.464-1.992-1.504
				c-0.832-0.024-1.5-0.516-1.688-1.28c-0.188-0.768,0.188-1.584,0.9-1.924c0.84-0.412,1.284-1.352,1.06-2.256
				c-0.224-0.912-1.028-1.496-1.988-1.512c-0.76-0.02-1.504-0.52-1.696-1.284c-0.076-0.312-0.06-0.628,0.044-0.94
				c0.208-0.612,0.108-1.288-0.272-1.808c-0.376-0.516-0.972-0.816-1.604-0.816c-0.092,0.004-0.2,0.004-0.3,0.004
				c-1.56,0-3.072-0.272-4.488-0.768c-0.044-1.344-0.18-2.688-0.556-4.008l25.488-11.328c0.096,5.384-3.012,10.5-8.052,12.752
				c-0.588,0.264-1.016,0.8-1.14,1.436c-0.12,0.636,0.076,1.292,0.524,1.756c0.22,0.224,0.364,0.476,0.428,0.752v0.004
				c0.188,0.764-0.188,1.576-0.904,1.92c-0.84,0.412-1.284,1.352-1.06,2.256c0.224,0.912,1.136,1.58,1.988,1.512
				c0.824,0.032,1.504,0.52,1.696,1.284c0.188,0.768-0.188,1.584-0.9,1.924c-0.84,0.412-1.284,1.352-1.06,2.256
				c0.224,0.912,1.084,1.572,1.984,1.512c0.96,0.024,1.508,0.516,1.696,1.284c0.188,0.764-0.192,1.58-0.908,1.928
				c-0.84,0.412-1.28,1.352-1.056,2.256c0.228,0.916,1.116,1.492,1.992,1.508c0.804,0.016,1.5,0.512,1.688,1.28
				s-0.188,1.58-0.904,1.924c-0.84,0.412-1.284,1.352-1.06,2.256c0.224,0.912,1.092,1.56,1.988,1.512
				c0.888-0.056,1.508,0.516,1.696,1.284c0.188,0.768-0.188,1.584-0.9,1.924c-0.84,0.412-1.284,1.352-1.06,2.256
				c0.224,0.912,1.136,1.552,1.984,1.512c0.92,0.044,1.504,0.516,1.696,1.284s-0.192,1.58-0.908,1.928
				c-0.84,0.412-1.28,1.352-1.056,2.256c0.228,0.912,1.032,1.496,1.992,1.508c0.78-0.036,1.5,0.516,1.688,1.28
				c0.188,0.768-0.188,1.584-0.9,1.924c-0.84,0.412-1.284,1.352-1.06,2.256c0.224,0.912,1.136,1.54,1.984,1.512
				c0.924,0.06,1.504,0.516,1.692,1.284s-0.188,1.584-0.9,1.924c-0.84,0.412-1.284,1.352-1.06,2.256
				c0.224,0.912,1.092,1.532,1.988,1.512c0.816-0.064,1.508,0.516,1.696,1.28c0.192,0.772-0.188,1.584-0.9,1.928
				c-0.844,0.412-1.284,1.352-1.06,2.26s1.036,1.48,1.992,1.508c0.78,0.016,1.5,0.512,1.688,1.28s-0.188,1.584-0.9,1.924
				c-0.84,0.412-1.284,1.352-1.06,2.256c0.224,0.912,1.092,1.52,1.988,1.512c0.78-0.008,1.504,0.512,1.696,1.288
				c0.188,0.768-0.188,1.58-0.9,1.92c-0.84,0.412-1.284,1.352-1.06,2.256c0.224,0.912,1.136,1.512,1.984,1.512
				c0.932-0.016,1.504,0.516,1.692,1.28c0.068,0.276,0.056,0.572-0.032,0.88c-0.18,0.62-0.044,1.288,0.36,1.792
				c0.404,0.5,1,0.788,1.672,0.74c6.572-0.464,12.54,3.944,14.124,10.376c0.172,0.704,0.268,1.404,0.332,2.1
				c0.016,0.184,0.096,0.348,0.16,0.516L133.036,206.944z M286.06,165.044c-0.212,0.348-0.544,0.592-0.932,0.692l-131.464,32.392
				c-0.104-0.076-0.232-0.12-0.32-0.212l-1.464,0.652l-8.052,1.984c-0.032-0.144-0.064-0.288-0.1-0.432
				c-1.864-7.576-8.42-12.928-16.04-13.392c-0.02-0.132-0.048-0.26-0.084-0.396c-0.324-1.3-1.092-2.412-2.12-3.176
				c0.556-1.152,0.724-2.492,0.4-3.796c-0.324-1.308-1.092-2.416-2.12-3.184c0.556-1.152,0.724-2.492,0.404-3.796
				c-0.324-1.308-1.092-2.416-2.12-3.184c0.556-1.152,0.724-2.492,0.4-3.8c-0.324-1.304-1.092-2.412-2.12-3.176
				c0.556-1.152,0.724-2.492,0.404-3.796c-0.324-1.308-1.092-2.416-2.12-3.184c0.556-1.152,0.724-2.492,0.404-3.796
				c-0.324-1.308-1.092-2.416-2.12-3.184c0.556-1.156,0.72-2.496,0.4-3.796c-0.324-1.304-1.092-2.416-2.12-3.18
				c0.556-1.156,0.724-2.492,0.404-3.796c-0.324-1.308-1.092-2.416-2.12-3.184c0.556-1.152,0.724-2.496,0.4-3.8
				c-0.324-1.304-1.092-2.416-2.12-3.18c0.556-1.156,0.724-2.496,0.404-3.796c-0.324-1.304-1.092-2.416-2.12-3.18
				c0.556-1.156,0.724-2.496,0.4-3.8c-0.324-1.304-1.092-2.412-2.12-3.176c0.556-1.156,0.724-2.5,0.4-3.804
				c-0.032-0.132-0.068-0.26-0.112-0.392c5.752-3.5,9.056-10.1,8.396-16.824l141.484-34.86c0.384-0.092,0.8-0.036,1.152,0.18
				c0.348,0.212,0.596,0.544,0.692,0.936l25.94,105.288C286.336,164.284,286.272,164.696,286.06,165.044z"/>
			<path d="M79.612,125.692c-0.108-0.456-0.572-0.752-1.028-0.624c-0.456,0.108-0.736,0.572-0.624,1.028l17.984,72.984l-26.64,6.564
				c-1,0.248-2,0.18-2.832-0.184c-0.752-0.328-1.248-0.864-1.408-1.508c-0.112-0.452-0.572-0.752-1.028-0.62
				c-0.456,0.108-0.736,0.572-0.624,1.028c0.288,1.168,1.132,2.112,2.376,2.66c0.712,0.312,1.508,0.468,2.332,0.468
				c0.524,0,1.06-0.064,1.588-0.196l27.468-6.764c0.22-0.052,0.408-0.192,0.524-0.384c0.116-0.196,0.152-0.424,0.096-0.644
				L79.612,125.692z"/>
			<path d="M45.836,125.876c-0.352-1.396,1.008-2.984,2.96-3.468l22.648-5.58c0.456-0.108,0.736-0.572,0.624-1.028
				c-0.112-0.452-0.568-0.76-1.028-0.62l-22.648,5.58c-2.896,0.716-4.788,3.192-4.212,5.524L58.944,186.2
				c0.096,0.388,0.444,0.648,0.828,0.648c0.068,0,0.136-0.008,0.204-0.028c0.456-0.108,0.736-0.572,0.624-1.028L45.836,125.876z"/>
			<path d="M144.968,94.864c-0.112-0.456-0.568-0.76-1.028-0.62l-7.396,1.82c-0.244,0.06-0.448,0.224-0.56,0.444
				c-0.112,0.228-0.116,0.488-0.02,0.716c0.308,0.716,0.536,1.38,0.7,2.032c0.832,3.372,0.3,6.86-1.5,9.832
				c-1.796,2.968-4.64,5.064-8.008,5.896c-0.608,0.148-1.272,0.248-2.032,0.316c-0.248,0.024-0.472,0.152-0.616,0.352
				c-0.144,0.204-0.192,0.456-0.136,0.7l11.828,47.996c0.096,0.388,0.444,0.648,0.828,0.648c0.068,0,0.136-0.008,0.204-0.028
				c0.456-0.108,0.736-0.572,0.624-1.028l-11.596-47.06c0.46-0.068,0.892-0.148,1.304-0.248c3.812-0.936,7.028-3.304,9.06-6.664
				c2.032-3.36,2.632-7.308,1.696-11.12c-0.112-0.448-0.252-0.904-0.42-1.364l6.448-1.588
				C144.804,95.78,145.08,95.32,144.968,94.864z"/>
			<path d="M163.292,91.22l72.052-17.752c0.068,0.496,0.156,0.96,0.264,1.408c0.94,3.812,3.304,7.032,6.664,9.064
				c3.112,1.88,6.728,2.528,10.288,1.872l10.424,42.308c0.096,0.388,0.444,0.648,0.828,0.648c0.068,0,0.136-0.008,0.204-0.028
				c0.456-0.108,0.736-0.572,0.624-1.028L254.016,84.6c-0.056-0.22-0.192-0.408-0.388-0.524c-0.188-0.116-0.42-0.156-0.644-0.096
				c-3.368,0.824-6.856,0.3-9.832-1.496c-2.968-1.796-5.06-4.64-5.892-8.016c-0.16-0.64-0.268-1.332-0.328-2.116
				c-0.016-0.248-0.148-0.48-0.348-0.624c-0.2-0.144-0.46-0.2-0.7-0.136l-73,17.988c-0.456,0.108-0.736,0.572-0.624,1.028
				C162.376,91.052,162.82,91.356,163.292,91.22z"/>
			<path d="M268.06,145.156c-7.868,1.94-12.692,9.916-10.752,17.78c0.108,0.432,0.24,0.872,0.404,1.324l-97.436,24.004
				c-0.068-0.48-0.152-0.924-0.256-1.356c-1.58-6.416-7.292-11.012-13.888-11.18c-1.28,0.008-2.612,0.108-3.896,0.428
				c-0.456,0.112-0.732,0.576-0.62,1.028c0.112,0.456,0.572,0.748,1.032,0.62c1.132-0.28,2.3-0.416,3.44-0.376
				c5.832,0.144,10.884,4.212,12.28,9.888c0.156,0.62,0.26,1.296,0.324,2.072c0.02,0.248,0.148,0.476,0.348,0.624
				c0.148,0.104,0.32,0.16,0.5,0.16c0.068,0,0.136-0.008,0.204-0.028l99.324-24.468c0.244-0.06,0.444-0.224,0.556-0.444
				c0.112-0.224,0.12-0.48,0.024-0.712c-0.304-0.712-0.524-1.364-0.68-1.992c-1.716-6.952,2.548-14.008,9.504-15.728
				c0.456-0.108,0.736-0.572,0.624-1.028C268.976,145.324,268.52,145.024,268.06,145.156z"/>
			<path d="M55.636,128.896c-0.456,0.108-0.736,0.572-0.624,1.028l16.484,67.508c0.096,0.388,0.444,0.648,0.828,0.648
				c0.068,0,0.136-0.008,0.2-0.028c0.456-0.108,0.736-0.572,0.624-1.028L56.664,129.52
				C56.552,129.064,56.076,128.756,55.636,128.896z"/>
			<path d="M83.124,195.304c0.068,0,0.136-0.008,0.2-0.028c0.456-0.108,0.736-0.572,0.624-1.028l-16.48-67.512
				c-0.112-0.452-0.584-0.752-1.028-0.62c-0.456,0.108-0.736,0.572-0.624,1.028l16.48,67.512
				C82.392,195.04,82.74,195.304,83.124,195.304z"/>
			<path d="M154.268,127.476c0.732,0.756,1.46,1.512,2.22,2.24c2.296,2.188,4.596,4.372,6.944,6.5
				c1.088,0.988,2.264,1.9,3.404,2.772l0.384,0.296c1.58,1.224,3.372,1.172,5.084,1.012c1.284-0.12,2.624-0.364,4.092-0.74l1-0.252
				c2.34-0.592,4.76-1.208,7.096-2c2.528-0.856,5.208-1.92,8.196-3.252c1.56-0.7,3.032-1.484,4.592-2.32
				c0.256-0.136,0.516-0.272,0.776-0.416c-0.004,0.168-0.008,0.332-0.02,0.496l-0.192,3.296c-0.076,1.284-0.152,2.572-0.22,3.852
				c-0.036,0.648-0.056,1.296-0.076,1.944c-0.016,0.588-0.036,1.18-0.068,1.768c-0.048,0.94-0.1,1.884-0.152,2.824
				c-0.06,1.004-0.116,2.008-0.164,3.012c-0.032,0.652-0.052,1.304-0.072,1.956c-0.02,0.612-0.04,1.228-0.068,1.844l-0.312,6
				c-0.016,0.348-0.02,0.7-0.024,1.052c-0.004,0.388-0.008,0.776-0.036,1.164c-0.072,1.064,0.512,1.604,1.016,1.872
				c0.124,0.068,0.26,0.1,0.4,0.1c0.008,0,0.02,0,0.028,0l0.364-0.024c0.128-0.008,0.248-0.044,0.356-0.104l1.52-0.868
				c1.136-0.652,2.272-1.304,3.436-1.904c1.352-0.692,2.672-1.58,3.172-3.408c0.284-1.044,0.596-2.084,0.908-3.128
				c0.208-0.704,0.42-1.412,0.62-2.116l4.628-16.108c1.34-4.656,2.684-9.316,4.048-13.968c0.028-0.084,0.14-0.236,0.208-0.272
				c1-0.564,2.008-1.104,3.02-1.652c0.72-0.388,1.44-0.772,2.16-1.168l2.108-1.164c2.828-1.556,5.652-3.112,8.46-4.708
				c2.472-1.404,4.284-3.32,5.38-5.7c0.444-0.968,0.64-2.216,0.54-3.42c-0.184-2.256-2.368-3.068-3.192-3.368
				c-1.96-0.728-4.144-1.016-6.892-0.888c-1.2,0.052-2.164,0.168-3.028,0.364c-1.132,0.252-2.332,0.548-3.444,1.084
				c-1.548,0.74-3.068,1.584-4.536,2.396l-1.224,0.676c-1.836,1.004-3.664,2.02-5.496,3.032l-6.572,3.628
				c-0.04-0.016-0.272-0.108-0.312-0.12l-3.148-0.912c-5.2-1.508-10.404-3.016-15.62-4.484c-0.82-0.224-1.796-0.148-2.484,0.192
				c-2,0.992-3.916,2.052-6.172,3.336c-0.848,0.476-1.028,1.052-1.028,1.448c0,0.408,0.188,1,1.092,1.512
				c4.244,2.428,8.492,4.856,12.756,7.264l-5.22,2.88c-3.008,1.64-6.116,3.34-9.128,5.1c-1.384,0.812-2.504,1.184-3.848,0.564
				c-0.272-0.128-0.54-0.184-0.776-0.232l-3.28-0.836c-3.104-0.8-6.208-1.604-9.324-2.396c-0.5-0.12-1.076-0.068-1.496,0.144
				c-0.8,0.4-1.584,0.828-2.364,1.26l-0.768,0.42c-0.288,0.156-0.444,0.796-0.424,1.124c0.012,0.208,0.096,0.404,0.244,0.548
				L154.268,127.476z M177.82,109.2c-0.016-0.004-0.024-0.012-0.04-0.02c2.224-1.264,4.104-2.304,6.06-3.272
				c0.312-0.156,0.872-0.188,1.268-0.076c5.212,1.464,10.408,2.968,15.604,4.476l1.652,0.484l-0.34,0.192
				c-1.904,1.06-3.744,2.084-5.592,3.104c-1.668,0.924-3.336,1.844-5.164,2.768C186.776,114.324,182.296,111.764,177.82,109.2z
				 M157.428,124.692c0.052-0.024,0.212-0.036,0.32-0.016c3.104,0.788,6.208,1.588,9.312,2.396l3.044,0.784l0.332,0.072
				c0.156,0.032,0.3,0.064,0.388,0.1c2.124,0.992,3.864,0.28,5.428-0.632c2.988-1.752,6.084-3.44,9.084-5.076l26.72-14.752
				c1.828-1.012,3.656-2.024,5.488-3.028l1.232-0.68c1.448-0.8,2.944-1.632,4.448-2.352c0.952-0.456,2.044-0.724,3.084-0.956
				c0.764-0.172,1.632-0.272,2.728-0.324c2.5-0.096,4.488,0.14,6.228,0.784c1.416,0.524,2.016,1.076,2.084,1.916
				c0.076,0.912-0.072,1.872-0.392,2.572c-0.944,2.052-2.512,3.712-4.672,4.932c-2.8,1.588-5.62,3.14-8.44,4.696l-2.108,1.16
				c-0.712,0.396-1.428,0.776-2.144,1.164c-1.02,0.552-2.04,1.096-3.056,1.668c-0.456,0.26-0.848,0.76-1,1.272
				c-1.368,4.656-2.708,9.316-4.052,13.98l-4.628,16.108c-0.2,0.704-0.408,1.404-0.616,2.1c-0.312,1.056-0.628,2.108-0.916,3.164
				c-0.308,1.128-1.108,1.732-2.304,2.34c-1.192,0.608-2.352,1.276-3.512,1.94l-1.144,0.656c0-0.016,0-0.028,0-0.044
				c0.028-0.416,0.036-0.836,0.04-1.256c0.004-0.328,0.008-0.656,0.024-0.984l0.312-6.008c0.028-0.62,0.048-1.248,0.068-1.868
				c0.02-0.644,0.04-1.284,0.072-1.928c0.048-0.996,0.104-1.996,0.164-2.996c0.052-0.944,0.108-1.892,0.156-2.836
				c0.028-0.596,0.048-1.2,0.068-1.8c0.02-0.636,0.04-1.272,0.076-1.908c0.068-1.28,0.144-2.564,0.22-3.844l0.192-3.304
				c0.024-0.448,0.028-0.896,0.036-1.36l0.008-0.632c0.004-0.296-0.148-0.58-0.4-0.74c-0.136-0.084-0.292-0.128-0.448-0.128
				c-0.136,0-0.268,0.032-0.392,0.096c-0.7,0.36-1.384,0.728-2.06,1.084c-1.532,0.82-2.98,1.592-4.488,2.264
				c-2.936,1.312-5.572,2.36-8.048,3.2c-2.272,0.768-4.66,1.376-6.968,1.96l-1.004,0.252c-1.384,0.356-2.636,0.584-3.832,0.692
				c-1.42,0.14-2.792,0.184-3.888-0.66l-0.384-0.296c-1.112-0.86-2.26-1.748-3.3-2.688c-2.336-2.12-4.628-4.296-6.912-6.476
				c-0.744-0.708-1.456-1.444-2.168-2.188l-0.364-0.376C155.888,125.5,156.648,125.08,157.428,124.692z"/>
		</g>
	</g>
</g>
<g>
</g>
<g>
</g>
<g>
</g>
<g>
</g>
<g>
</g>
<g>
</g>
<g>
</g>
<g>
</g>
<g>
</g>
<g>
</g>
<g>
</g>
<g>
</g>
<g>
</g>
<g>
</g>
<g>
</g>
</svg>
