<?xml version="1.0" encoding="iso-8859-1"?>
<!-- Generator: Adobe Illustrator 19.0.0, SVG Export Plug-In . SVG Version: 6.00 Build 0)  -->
<svg version="1.1" id="Layer_1" xmlns="http://www.w3.org/2000/svg" xmlns:xlink="http://www.w3.org/1999/xlink" x="0px" y="0px"
	 viewBox="0 0 312.14 312.14" style="enable-background:new 0 0 312.14 312.14;" xml:space="preserve">
<g>
	<g>
		<g>
			<path d="M130.042,290.232c-4.172-0.596-7.308-1.112-9.384-1.488c-0.192-0.1-0.392-0.176-0.616-0.22
				c-3.188-0.636-3.856-0.768-4.74,0.28c-0.512,0.608-0.656,1.452-0.376,2.192c0.5,1.32,0.604,1.592,14.492,3.572
				c0.108,0.016,0.212,0.02,0.316,0.02c1.068,0,2.008-0.788,2.164-1.88C132.066,291.512,131.234,290.404,130.042,290.232z"/>
			<path d="M269.302,112.796h-0.008l-6.884,0.028c-0.352-14.784-3.668-28.996-9.888-42.316c9.836-16.18,7.308-31.08-7.62-46.004
				c-15.02-15.02-30.536-17.284-47.092-6.856c-12.448-5.312-25.856-8.26-39.564-8.544V2.188c0-1.212-0.976-2.188-2.188-2.188
				c-1.212,0-2.188,0.976-2.188,2.188v6.92c-5.956,0.12-11.896,0.656-17.672,1.752c-1.188,0.224-1.968,1.372-1.748,2.552
				c0.224,1.188,1.408,1.956,2.556,1.748c5.516-1.044,11.18-1.552,16.864-1.672V42.3c-5.36,0.292-10.56,1.148-15.548,2.556
				c-3.328-5.672-6.888-10.468-10.692-14.268c-3.828-3.828-7.564-6.944-11.232-9.504c0.5-0.616,0.668-1.46,0.332-2.24
				c-0.484-1.108-1.772-1.62-2.88-1.136c-0.536,0.232-1.044,0.512-1.576,0.752c-6.372-3.668-12.56-5.46-18.66-5.284
				c-8.976,0.236-17.608,4.62-26.396,13.412C52.566,41.24,49.842,55.872,59.062,71.72c-5.84,12.964-9.112,27.184-9.356,41.94
				l-6.892,0.028c-1.212,0.004-2.188,0.988-2.18,2.196c0.004,1.208,0.98,2.18,2.188,2.18h0.008l6.884-0.028
				c0.336,13.6,3.276,26.848,8.504,39.1c-10.656,16.62-8.352,31.864,6.916,47.136c9.008,9.012,18.004,13.52,27.284,13.52
				c6.088,0,12.308-2.008,18.72-5.904c7.252,3.384,14.764,5.916,22.492,7.572c0.024,24.812-10.028,49.032-10.168,49.364
				c-0.208,0.5-0.24,1.008-0.192,1.508c-10.812,2.5-20.336,6.268-27.416,11.116c-0.76,0.524-1.252,1.356-1.344,2.272l-0.076,0.62
				c-0.084,0.62-0.16,1.236-0.16,1.876v0.736c0,13.888,11.3,25.188,25.188,25.188h69.12c13.888,0,25.188-11.3,25.188-25.188v-0.736
				c0-0.64-0.076-1.256-0.16-1.876l-0.076-0.62c-0.092-0.916-0.584-1.748-1.344-2.272c-7.124-4.876-16.728-8.66-27.624-11.16
				c0.044-0.524,0.004-1.056-0.236-1.564c-0.164-0.348-11.356-24.792-11.788-48.148c1.684-0.26,3.36-0.556,5.024-0.896
				c1.184-0.244,1.948-1.4,1.708-2.584c-0.252-1.184-1.432-1.956-2.584-1.704c-1.36,0.28-2.732,0.512-4.104,0.732
				c0.372-8.256,2.292-16.168,6.76-22.588c2.236,3.244,4.636,6.224,7.232,8.816c11.692,11.692,22.592,17.524,33.136,17.524
				c9.276-0.004,18.276-4.516,27.284-13.52c15.54-15.544,17.684-31.064,6.364-48.032c5.66-12.788,8.828-26.736,9.068-41.12
				l6.896-0.028c1.212-0.004,2.184-0.988,2.18-2.2C271.486,113.768,270.51,112.796,269.302,112.796z M258.03,112.84l-28.512,0.112
				c-0.072-6.028-0.916-11.952-2.444-17.68c5.188-3.068,9.956-6.48,13.828-10.352c3.448-3.448,6.324-6.82,8.752-10.14
				C254.902,86.816,257.706,99.588,258.03,112.84z M200.246,23.48c7.82,3.752,15.192,8.484,21.88,14.168
				c0.412,0.348,0.916,0.52,1.416,0.52c0.62,0,1.236-0.26,1.668-0.768c0.784-0.924,0.668-2.304-0.252-3.084
				c-6.248-5.312-13.096-9.76-20.304-13.46c15.704-8.116,26.82-0.944,35.828,8.064c11.764,11.764,20.488,27.088-3.996,51.576
				c-3.192,3.192-7.048,6.088-11.312,8.708c-1.964-5.368-4.54-10.524-7.776-15.336c-0.676-1.008-2.044-1.268-3.036-0.6
				c-1.008,0.676-1.272,2.04-0.6,3.036c3.172,4.72,5.668,9.784,7.536,15.068c-11.1,6.108-24.1,10.556-35.24,13.596
				c-1.516-4.804-4.164-9.212-7.832-12.876c-4.016-4.016-8.848-6.708-13.968-8.124c2.94-10.872,7.204-23.576,13.06-34.592
				c7.356,2.224,14.32,5.672,20.628,10.36c0.968,0.712,2.336,0.516,3.064-0.452c0.72-0.968,0.516-2.34-0.452-3.064
				c-6.456-4.796-13.552-8.388-21.044-10.764c2.808-4.732,5.912-9.048,9.396-12.536C192.934,28.896,196.69,25.844,200.246,23.48z
				 M187.474,113.116c-0.032-0.676-0.06-1.348-0.132-2.016c11.188-3.036,24.292-7.46,35.796-13.6
				c1.256,5.024,1.936,10.204,2.008,15.468L187.474,113.116z M224.998,117.344c-0.26,5.04-1.056,9.932-2.368,14.624
				c-11.512-5.776-24.432-9.948-35.444-12.832c0.076-0.548,0.168-1.088,0.216-1.644L224.998,117.344z M158.246,13.476
				c12.172,0.264,24.104,2.704,35.284,7.12c-2.98,2.248-5.992,4.852-9.044,7.904c-4.244,4.24-7.984,9.512-11.268,15.296
				c-4.872-1.068-9.876-1.652-14.972-1.684V13.476z M158.246,46.488c4.344,0.028,8.616,0.5,12.796,1.332
				c-5.72,11.136-9.888,23.66-12.796,34.38V46.488z M158.246,89.292c5.68,0.556,11.216,2.892,15.556,7.232
				c4.48,4.476,6.992,10.344,7.344,16.616l-3.312,0.016c-0.332-5.208-2.396-10.328-6.364-14.296
				c-3.696-3.696-8.392-5.724-13.224-6.268V89.292z M158.246,98.84c3.316,0.52,6.384,2.02,8.804,4.436
				c2.756,2.756,4.22,6.288,4.536,9.9l-13.34,0.052V98.84z M158.246,117.608l13.192-0.052c-0.572,3.06-2.032,5.98-4.388,8.34
				c-2.48,2.476-5.58,3.924-8.804,4.432V117.608z M158.246,136.58c4.832-0.548,9.528-2.568,13.224-6.264
				c3.584-3.584,5.6-8.108,6.22-12.788l3.312-0.012c-0.652,5.704-3.072,11.012-7.196,15.136c-3.468,3.468-7.776,5.768-12.448,6.816
				c-0.052,0.008-0.1-0.004-0.156,0.008c-0.088,0.02-0.148,0.084-0.232,0.108c-0.888,0.188-1.812,0.22-2.724,0.308V136.58z
				 M158.246,146.272c0.472-0.036,0.94-0.088,1.408-0.144c2.732,10.512,6.608,22.648,11.88,33.692
				c-4.296,0.892-8.74,1.364-13.288,1.396V146.272z M153.87,46.672v36.212c-0.132,0.008-0.268,0.008-0.4,0.02
				c-3.728-13.456-8.072-24.828-12.976-34.096C144.802,47.66,149.27,46.936,153.87,46.672z M140.05,178.824
				c5.244-10.724,9.124-22.512,11.86-32.684c0.648,0.08,1.3,0.124,1.96,0.164v34.788C149.138,180.82,144.518,180.044,140.05,178.824
				z M153.87,185.472v31.94c-4.732-0.1-9.4-0.508-13.996-1.236c-0.344-9.072-2.048-18.192-5.972-26.432
				c1.444-2.216,2.808-4.532,4.1-6.932C143.114,184.276,148.426,185.176,153.87,185.472z M137.67,132.656
				c-4.18-4.184-6.5-9.476-7.172-14.936l3.304-0.016c0.648,4.616,2.664,9.072,6.204,12.616c3.864,3.856,8.808,5.9,13.864,6.324
				v3.312C147.758,139.512,142.05,137.032,137.67,132.656z M139.874,113.3c0.296-3.656,1.764-7.236,4.552-10.024
				c2.572-2.572,5.88-4.084,9.44-4.5v14.472L139.874,113.3z M144.43,125.896c-2.328-2.328-3.784-5.204-4.372-8.216l13.812-0.056
				v12.768C150.418,129.988,147.07,128.536,144.43,125.896z M140.006,98.852c-4.016,4.016-6.084,9.204-6.384,14.468l-3.304,0.02
				c0.296-6.12,2.688-12.156,7.352-16.824c4.508-4.504,10.296-6.86,16.2-7.296v3.304C148.814,92.948,143.866,94.992,140.006,98.852z
				 M147.262,83.964c-5.132,1.408-9.984,4.104-14.016,8.132c-4.188,4.192-6.928,9.276-8.288,14.644
				c-12.392-3.448-23.048-7.496-31.748-11.996c6.036-20.352,21.444-36.66,41.204-44.004
				C139.254,59.668,143.59,70.852,147.262,83.964z M124.022,112.976c-0.004,0.128-0.012,0.26-0.016,0.388l-33.576,0.132
				c0.024-4.26,0.456-8.42,1.24-12.46C100.63,105.524,111.43,109.52,124.022,112.976z M123.21,35.004
				c3.136,3.136,6.132,7.18,8.988,11.892c-20.428,7.836-36.424,24.688-42.952,45.72c-5.496-3.16-10.088-6.516-13.612-10.04
				c-4.7-4.7-8.156-9.06-10.624-13.124c9.668-19.148,25.26-35.092,45.036-45.088C114.262,26.916,118.626,30.416,123.21,35.004z
				 M71.634,31.004c7.6-7.6,14.844-11.392,22.144-11.58c3.764-0.112,7.604,0.744,11.556,2.472
				c-18.38,9.968-33.112,24.928-42.796,42.78C56.138,50.104,63.046,39.596,71.634,31.004z M61.934,76.136
				c2.524,3.552,5.584,7.164,9.28,10.86c4.272,4.272,9.788,8.236,16.412,11.908c-1.004,4.716-1.552,9.6-1.572,14.608l-31.976,0.124
				C54.306,100.504,57.054,87.832,61.934,76.136z M54.09,118.016l68.244-0.268c-17.88,4.892-40.268,13.172-53.2,26.108
				c-3.06,3.06-5.676,6.06-7.932,9.02C56.85,141.872,54.398,130.088,54.09,118.016z M115.378,209.048
				c3.332-2.432,6.716-5.316,10.176-8.776c1.424-1.424,2.772-2.98,4.084-4.616c2.356,6.08,3.52,12.66,3.868,19.304
				C127.306,213.568,121.25,211.612,115.378,209.048z M95.882,140.504c-0.476-1.112-1.764-1.624-2.872-1.14
				c-1.112,0.476-1.624,1.764-1.14,2.872c7.8,18.088,22.44,31.78,40.128,38.588c-3.164,5.736-6.768,10.928-10.868,15.024
				c-24.476,24.468-39.808,15.76-51.576,4.004c-8.992-9-16.156-20.096-8.1-35.76c7.66,14.888,18.816,27.984,32.788,37.968
				c0.384,0.276,0.828,0.412,1.272,0.412c0.684,0,1.352-0.32,1.78-0.92c0.7-0.98,0.48-2.348-0.508-3.048
				c-14.176-10.132-25.288-23.62-32.644-38.928c2.36-3.544,5.404-7.288,9.416-11.3C85.83,136,107.894,128.084,125.21,123.448
				c1.44,4.992,4.116,9.7,8.04,13.624c3.58,3.58,7.872,6.18,12.548,7.712c-2.72,10.072-6.572,21.736-11.752,32.124
				C117.222,170.576,103.278,157.648,95.882,140.504z M204.686,284.256c-18.86,6.096-38.804,8.652-59.384,7.496
				c-1.148-0.16-2.236,0.856-2.304,2.064c-0.072,1.208,0.856,2.24,2.064,2.304c3.324,0.188,6.628,0.28,9.916,0.28
				c18.104,0,35.688-2.832,52.424-8.4c-0.552,9.944-8.744,17.888-18.824,17.888h-69.12c-10.076,0-18.26-7.932-18.824-17.864
				c0.168,0.112,0.336,0.228,0.54,0.292c2.652,0.804,5.76,1.68,9.272,2.556c0.176,0.044,0.356,0.064,0.528,0.064
				c0.98,0,1.876-0.664,2.124-1.656c0.296-1.172-0.42-2.364-1.592-2.656c-3.128-0.78-5.88-1.552-8.316-2.28
				c12.468-7.02,30.992-11.168,50.824-11.168C173.766,273.176,192.222,277.292,204.686,284.256z M177.562,268.888
				c-7.484-1.264-15.416-1.972-23.544-1.972c-8.248,0-16.296,0.72-23.872,2.02c2.592-6.748,9.6-26.964,9.784-48.328
				c4.584,0.692,9.232,1.088,13.944,1.18v6.884c0,1.208,0.976,2.188,2.188,2.188c1.212,0,2.188-0.98,2.188-2.188v-6.88
				c2.676-0.052,5.348-0.188,8.008-0.444C166.754,241.672,174.602,261.932,177.562,268.888z M174.25,189.884
				c-5.476,7.828-7.672,17.344-7.976,27.076c-2.664,0.264-5.344,0.4-8.028,0.456v-31.824c5.252-0.032,10.36-0.664,15.292-1.772
				C174.398,185.456,174.734,189.196,174.25,189.884z M177.694,178.236c-5.288-10.8-9.192-22.956-11.936-33.476
				c4.644-1.54,8.908-4.124,12.468-7.684c3.404-3.404,5.908-7.456,7.472-11.864c10.932,2.864,23.772,7.02,34.952,12.736
				C213.274,157.116,197.442,172.12,177.694,178.236z M190.99,197.928c-4.272-4.268-8.012-9.724-11.28-15.764
				c20.512-6.596,36.976-22.192,44.824-42.116c5.34,3.032,10.176,6.448,14.028,10.304c3.668,3.668,6.508,7.104,8.788,10.376
				c-9.76,19.616-25.7,35.988-45.888,46.048C198.162,204.488,194.694,201.628,190.99,197.928z M242.562,201.932
				c-9.192,9.184-20.572,16.44-36.78,7.54c19.12-10.14,34.428-25.76,44.284-44.388C259.022,181.324,251.762,192.728,242.562,201.932
				z M250.338,154.16c-2.12-2.7-4.568-5.44-7.352-8.228c-4.504-4.504-10.16-8.444-16.372-11.876
				c1.572-5.344,2.488-10.952,2.768-16.732l28.66-0.112C257.81,130.088,255.114,142.584,250.338,154.16z"/>
		</g>
	</g>
</g>
<g>
</g>
<g>
</g>
<g>
</g>
<g>
</g>
<g>
</g>
<g>
</g>
<g>
</g>
<g>
</g>
<g>
</g>
<g>
</g>
<g>
</g>
<g>
</g>
<g>
</g>
<g>
</g>
<g>
</g>
</svg>
