<?xml version="1.0" encoding="iso-8859-1"?>
<!-- Generator: Adobe Illustrator 19.0.0, SVG Export Plug-In . SVG Version: 6.00 Build 0)  -->
<svg version="1.1" id="Layer_1" xmlns="http://www.w3.org/2000/svg" xmlns:xlink="http://www.w3.org/1999/xlink" x="0px" y="0px"
	 viewBox="0 0 245.648 245.648" style="enable-background:new 0 0 245.648 245.648;" xml:space="preserve">
<g>
	<g>
		<g>
			<path d="M223.668,22.474H21.984C9.86,22.474,0,32.338,0,44.458v142.164c0,12.12,9.86,21.984,21.984,21.984h3.292v12.584
				l1.984,1.984h16.068l1.724-1l7.76-13.572h143.456l7.76,13.572l1.724,1h16.068l1.984-1.984v-12.592
				c12.06-0.076,21.844-9.904,21.844-21.976V44.458C245.652,32.338,235.792,22.474,223.668,22.474z M42.176,219.206H29.244v-10.6h19
				L42.176,219.206z M219.844,219.206h-0.004h-12.932l-6.064-10.6h19V219.206z M241.684,186.622c0,9.932-8.084,18.016-18.016,18.016
				h-1.844H197.42H51.664H27.26h-5.276c-9.932,0-18.016-8.084-18.016-18.016V44.458c0-9.932,8.084-18.016,18.016-18.016h201.684
				c9.932,0,18.016,8.084,18.016,18.016V186.622z"/>
			<path d="M27.896,37.278L26.76,38.41v22.176h-9.8l-1.416,1.416V88.99l1.416,1.416h9.8v49.448h-9.8l-1.416,1.416v26.996
				l1.416,1.416h9.8v22.176l1.136,1.132h197.372l1.136-1.132V38.41l-1.136-1.132H27.896z M18.376,63.422h7.464v5.796l-7.464,8.952
				V63.422z M25.844,87.574H18.38v-7.632l7.464-8.952V87.574z M18.376,142.69h7.464v0.004v6.712l-7.464,8.952V142.69z
				 M25.844,166.85H18.38v-0.004v-6.712l7.464-8.952V166.85z M224.136,190.726H29.032V39.542h195.104V190.726z"/>
			<path d="M208.912,61.514c4.152,0,7.532-3.38,7.532-7.532c0-4.156-3.38-7.536-7.532-7.536c-4.156,0-7.532,3.38-7.532,7.536
				C201.38,58.138,204.756,61.514,208.912,61.514z M213.604,53.978c0.004,2.596-2.1,4.7-4.692,4.7c-1.088,0-2.044-0.432-2.844-1.056
				l6.484-6.484C213.176,51.934,213.604,52.894,213.604,53.978z M208.912,49.286c1.088,0,2.044,0.432,2.84,1.056l-6.484,6.484
				c-0.62-0.796-1.052-1.752-1.052-2.836C204.216,51.394,206.324,49.286,208.912,49.286z"/>
			<path d="M208.912,183.822c4.152,0,7.532-3.38,7.532-7.532c0-4.156-3.38-7.536-7.532-7.536c-4.156,0-7.532,3.38-7.532,7.536
				C201.38,180.442,204.756,183.822,208.912,183.822z M213.604,176.286c0.004,2.592-2.1,4.7-4.692,4.7
				c-1.088,0-2.044-0.432-2.844-1.056l6.484-6.484C213.176,174.242,213.604,175.202,213.604,176.286z M208.912,171.59
				c1.088,0,2.044,0.432,2.84,1.056l-6.484,6.484c-0.62-0.796-1.052-1.752-1.052-2.836
				C204.216,173.698,206.324,171.59,208.912,171.59z"/>
			<path d="M161.656,112.098v40.248c0,4.04,3.288,7.328,7.328,7.328h4.24c4.04,0,7.328-3.288,7.328-7.328v-39.848
				c7.532-3.444,12.812-10.98,12.812-19.788c0-12.036-9.792-21.824-21.828-21.824s-21.828,9.788-21.828,21.824
				C149.708,101.178,154.588,108.482,161.656,112.098z M177.712,152.342c0,2.476-2.016,4.492-4.492,4.492h-4.24
				c-2.476,0-4.492-2.016-4.492-4.492V92.774c0-2.476,2.012-4.492,4.492-4.492h4.24c2.476,0,4.492,2.016,4.492,4.492V152.342z
				 M173.22,85.446h-4.24c-4.04,0-7.328,3.288-7.328,7.328v12.7c-3.828-2.964-6.328-7.56-6.328-12.764
				c0-8.932,7.268-16.204,16.204-16.204c8.936,0,16.204,7.268,16.204,16.204c0,5.58-2.884,10.428-7.188,13.336V92.778
				C180.548,88.734,177.26,85.446,173.22,85.446z M171.532,73.15c10.784,0,19.556,8.772,19.556,19.56
				c0,7.516-4.304,13.988-10.54,17.256v-2.588c4.956-3.048,8.324-8.436,8.324-14.672c0-9.56-7.776-17.336-17.336-17.336
				S154.2,83.146,154.2,92.706c0,5.868,2.98,10.988,7.46,14.116v2.624c-5.756-3.4-9.68-9.584-9.68-16.74
				C151.976,81.922,160.752,73.15,171.532,73.15z"/>
			<path d="M91.264,155.826c22.436,0,40.688-18.252,40.688-40.688S113.7,74.446,91.264,74.446
				c-22.436,0-40.688,18.252-40.688,40.692C50.576,137.57,68.832,155.826,91.264,155.826z M65.7,142.97l7-7.308
				c2.012,1.82,4.284,3.344,6.76,4.52l-4.052,9.28C71.832,147.802,68.568,145.606,65.7,142.97z M90.472,152.95
				c-4.812-0.1-9.412-1.084-13.624-2.828l4.056-9.292c2.968,1.2,6.192,1.892,9.568,1.988V152.95z M92.06,152.946v-10.132
				c2.792-0.08,5.484-0.568,8.012-1.416l3.492,9.5C99.944,152.146,96.084,152.866,92.06,152.946z M105.048,150.35l-3.488-9.496
				c3.072-1.232,5.86-3.004,8.272-5.192l7,7.304C113.416,146.106,109.44,148.626,105.048,150.35z M118.008,141.898l-7.016-7.32
				c2.18-2.212,3.972-4.796,5.316-7.636l9.28,4.052C123.7,135.066,121.144,138.766,118.008,141.898z M126.252,129.554l-9.292-4.06
				c1.204-2.968,1.892-6.192,1.988-9.568h10.132C128.98,120.742,127.996,125.338,126.252,129.554z M129.08,114.342h-10.132
				c-0.092-3.208-0.728-6.276-1.824-9.124l9.348-3.896C128.068,105.374,128.984,109.754,129.08,114.342z M125.868,99.85l-9.356,3.9
				c-1.364-3.008-3.228-5.736-5.52-8.056l7.016-7.32C121.296,91.654,123.96,95.55,125.868,99.85z M116.832,87.302l-7,7.308
				c-2.012-1.82-4.28-3.344-6.76-4.52l4.056-9.28C110.7,82.47,113.968,84.666,116.832,87.302z M92.056,77.322
				c4.812,0.1,9.412,1.084,13.628,2.828l-4.06,9.292c-2.968-1.2-6.192-1.892-9.568-1.988V77.322z M91.284,90.722
				c13.472,0,24.436,10.964,24.436,24.436s-10.96,24.432-24.436,24.432s-24.436-10.96-24.436-24.432
				C66.852,101.686,77.812,90.722,91.284,90.722z M90.472,77.322v10.132c-2.792,0.08-5.484,0.568-8.012,1.416l-3.492-9.5
				C82.588,78.122,86.448,77.402,90.472,77.322z M77.484,79.918l3.488,9.5C77.9,90.65,75.116,92.422,72.7,94.61l-7-7.308
				C69.116,84.162,73.092,81.642,77.484,79.918z M64.524,88.37l7.012,7.32c-2.18,2.212-3.972,4.796-5.316,7.636l-9.28-4.052
				C58.832,95.202,61.388,91.506,64.524,88.37z M56.28,100.714l9.292,4.06c-1.204,2.972-1.892,6.196-1.988,9.568H53.452
				C53.552,109.53,54.536,104.93,56.28,100.714z M53.452,115.93h10.132c0.092,3.208,0.728,6.276,1.824,9.124l-9.348,3.896
				C54.464,124.898,53.548,120.518,53.452,115.93z M66.016,126.522c1.36,3.008,3.228,5.736,5.52,8.056l-7.012,7.32
				c-3.288-3.284-5.952-7.176-7.86-11.48L66.016,126.522z"/>
		</g>
	</g>
</g>
<g>
</g>
<g>
</g>
<g>
</g>
<g>
</g>
<g>
</g>
<g>
</g>
<g>
</g>
<g>
</g>
<g>
</g>
<g>
</g>
<g>
</g>
<g>
</g>
<g>
</g>
<g>
</g>
<g>
</g>
</svg>
