<?xml version="1.0" encoding="iso-8859-1"?>
<!-- Generator: Adobe Illustrator 19.0.0, SVG Export Plug-In . SVG Version: 6.00 Build 0)  -->
<svg version="1.1" id="Layer_1" xmlns="http://www.w3.org/2000/svg" xmlns:xlink="http://www.w3.org/1999/xlink" x="0px" y="0px"
	 viewBox="0 0 289.596 289.596" style="enable-background:new 0 0 289.596 289.596;" xml:space="preserve">
<g>
	<g>
		<g>
			<path d="M228.424,209.25c2.236,0,4.052-1.816,4.052-4.052c0-2.236-1.816-4.052-4.052-4.052c-2.236,0-4.048,1.816-4.048,4.052
				C224.376,207.434,226.192,209.25,228.424,209.25z M228.424,202.278c1.608,0,2.916,1.308,2.916,2.916s-1.308,2.916-2.916,2.916
				s-2.916-1.308-2.916-2.916S226.816,202.278,228.424,202.278z"/>
			<path d="M75.816,209.25c2.236,0,4.052-1.816,4.052-4.052c0-2.236-1.816-4.052-4.052-4.052s-4.052,1.816-4.052,4.052
				C71.764,207.434,73.58,209.25,75.816,209.25z M75.816,202.278c1.608,0,2.916,1.308,2.916,2.916s-1.308,2.916-2.916,2.916
				c-1.608,0-2.916-1.308-2.916-2.916S74.208,202.278,75.816,202.278z"/>
			<path d="M283.196,145.038L267.6,98.418h21.992v-9.012c0-17.424-11.964-25.896-36.584-25.896H50.816
				c-24.616,0-36.584,8.468-36.584,25.896v89.448c0,1.42,0.108,2.816,0.268,4.196H9.724c-0.988-1.308-2.544-2.168-4.308-2.168
				c-2.988,0-5.416,2.428-5.416,5.416s2.428,5.416,5.416,5.416c1.78,0,3.348-0.872,4.336-2.2l6.452,0.948
				c4.816,14.06,18.032,24.48,33.584,24.924l1.18,0.032l4.256-7.372c1.404,10.16,10.052,18.04,20.596,18.04
				c11.24,0,20.368-8.944,20.8-20.08l5.444,9.432h99.704l5.796-10.044c0.108,11.424,9.416,20.692,20.864,20.692
				c10.332,0,18.876-7.564,20.532-17.432l3.904,6.764l1.18-0.032c19.6-0.56,35.552-16.944,35.552-36.532v-33.816H283.196z
				 M5.416,190.586c-2.364,0-4.284-1.92-4.284-4.284c0-2.364,1.92-4.284,4.284-4.284c2.364,0,4.284,1.92,4.284,4.284
				C9.7,188.666,7.78,190.586,5.416,190.586z M10.38,188.462c0.292-0.664,0.456-1.392,0.456-2.164c0-0.752-0.156-1.468-0.432-2.116
				h4.272c0.26,1.728,0.608,3.428,1.108,5.072L10.38,188.462z M279.008,145.038h-82.552v-46.62h66.956L279.008,145.038z
				 M75.816,222.114c-9.328,0-16.916-7.588-16.916-16.916c0-1.72,0.312-3.356,0.8-4.916l4.604-7.972h5.232
				c-4.784,2.344-8.112,7.212-8.112,12.888c0,7.932,6.456,14.392,14.392,14.392c7.936,0,14.392-6.456,14.392-14.392
				c0-5.672-3.332-10.544-8.112-12.888h4.508c3.716,3.092,6.124,7.684,6.124,12.888C92.732,214.526,85.144,222.114,75.816,222.114z
				 M75.816,192.394c7.06,0,12.804,5.748,12.804,12.804c0,7.056-5.748,12.804-12.804,12.804c-7.056,0-12.804-5.748-12.804-12.804
				C63.012,198.142,68.756,192.394,75.816,192.394z M228.424,222.114c-9.332,0-16.916-7.588-16.916-16.916
				c0-5.204,2.412-9.8,6.132-12.888h4.504c-4.784,2.344-8.112,7.212-8.112,12.888c0,7.932,6.456,14.392,14.392,14.392
				c7.936,0,14.392-6.456,14.392-14.392c0-5.672-3.332-10.544-8.112-12.888h4.82l5.376,9.308c0.256,1.156,0.44,2.34,0.44,3.58
				C245.34,214.526,237.756,222.114,228.424,222.114z M228.424,192.394c7.06,0,12.804,5.748,12.804,12.804
				c0,7.056-5.748,12.804-12.804,12.804c-7.056,0-12.804-5.748-12.804-12.804C215.62,198.142,221.368,192.394,228.424,192.394z
				 M255.1,211.362l-13.288-23.02h-28.988l-13.348,23.124h-95.124l-13.348-23.124H62.016l-13.288,23.02
				c-16.936-1.096-30.524-15.44-30.524-32.508V89.406c0-14.956,10.364-21.924,32.612-21.924h202.196
				c22.248,0,32.612,6.968,32.612,21.924v5.044h-93.136v54.56h93.136v29.844h0C285.624,195.922,272.04,210.266,255.1,211.362z"/>
			<path d="M190.068,92.194h92.384v-0.252h0.964v-1.676h-0.048c-1.032-17.828-18.644-20.168-34.048-20.168H55.688
				c-15.416,0-32.996,2.392-34,20.256h-0.12v1.132h0.048c0,0.156-0.028,0.292-0.028,0.452v19.08h-0.024v1.132h0.024v19.532h-0.024
				v1.132h0.024v19.536h-0.024v1.132h0.024v20.084c0,20.204,9.492,32.044,26.04,32.492l0.564,0.016l12.764-21.072h33.568
				l11.768,22.656h91.34l13.524-22.492l32.892-0.164l13.24,22.672l0.572-0.016c15.736-0.424,24.756-13.036,24.756-34.584
				l0.124-21.044l-92.556-0.412L190.068,92.194z M55.688,72.026h193.636c21.62,0,31.356,5.476,32.116,18.24h-93.3v0.088H23.592
				C24.32,77.542,34.024,72.026,55.688,72.026z M23.52,112.15h18.228c-0.388,1.272-0.656,2.596-0.656,3.996v15.536H23.52V112.15z
				 M23.52,153.482h91.94v19.724H23.52V153.482z M47.124,204.106c-11.136-0.488-17.056-6.392-20.192-13.18h28.176L47.124,204.106z
				 M115.46,205.73h-7.996l-6.932-13.344h14.928V205.73z M115.464,191.258H99.948l-4.248-8.18H59.872v-0.004l-4.072,6.724H26.428
				c-2.28-5.532-2.836-11.448-2.892-15.456h91.928V191.258z M115.464,152.35H23.52v-19.536h17.572v1.86
				c0,7.66,6.236,13.896,13.896,13.896h29.42c7.66,0,13.896-6.236,13.896-13.896v-1.86h17.16V152.35z M45.06,134.674v-18.528
				c0-5.472,4.452-9.924,9.924-9.924h29.42c5.472,0,9.924,4.452,9.924,9.924v18.528c0,5.472-4.452,9.924-9.924,9.924h-29.42
				C49.512,144.598,45.06,140.146,45.06,134.674z M115.46,115.21v16.472H98.3v-15.536c0-1.396-0.268-2.72-0.656-3.996h18.196
				C115.612,113.134,115.46,114.15,115.46,115.21z M160.372,203.294h-40.944V115.21c0-4.956,3.688-8.988,8.224-8.988h25.752
				c3.844,0,6.968,3.424,6.968,7.64V203.294z M153.4,102.254h-25.752c-5.336,0-9.832,3.684-11.48,8.764h-18.88
				c-2.048-5.124-7.04-8.764-12.884-8.764h-29.42c-5.844,0-10.836,3.64-12.884,8.764H23.52v-19.08h0c0-0.156,0.016-0.3,0.02-0.452
				h164.604l0.036,19.532h-24.212C162.764,105.994,158.504,102.254,153.4,102.254z M164.176,112.15h24.004l0.036,19.532h-23.88
				v-17.82C164.34,113.274,164.256,112.714,164.176,112.15z M188.256,205.73H164.34v-13.344h23.916V205.73z M188.256,191.254H164.34
				v-16.916h23.916V191.254z M188.256,173.206H164.34v-19.724h23.916V173.206z M164.34,152.35v-19.536h23.88l0.036,19.536H164.34z
				 M258.372,205.71l-7.784-13.324h26.576C274.124,199.33,268.544,205.23,258.372,205.71z M190.188,153.55l90.612,0.4l-0.116,19.12
				c0,0.044,0,0.092,0,0.136h-90.496V153.55z M190.188,174.338h90.476c-0.088,4.488-0.712,10.972-3.052,16.916h-27.688l-4.776-8.18
				l-35.084,0.172l-4.98,8.28v-0.272h-14.896V174.338z M190.188,192.386h14.376l-8.024,13.344h-6.352V192.386z"/>
			<path d="M42.42,158.946h-8.88c-3.024,0-5.48,2.46-5.48,5.484c0,3.024,2.456,5.484,5.48,5.484h8.88
				c3.024,0,5.484-2.46,5.484-5.484C47.904,161.406,45.444,158.946,42.42,158.946z M42.416,168.778h-8.88
				c-2.4,0-4.348-1.952-4.348-4.352c0-2.4,1.952-4.348,4.352-4.348h8.88c2.4,0,4.352,1.952,4.352,4.352
				C46.772,166.83,44.816,168.778,42.416,168.778z"/>
			<path d="M257.548,85.15h8.732c1.344,0,2.436-1.092,2.436-2.436c0-1.344-1.092-2.436-2.436-2.436h-8.732
				c-1.344,0-2.436,1.092-2.436,2.436C255.112,84.058,256.204,85.15,257.548,85.15z M257.548,81.41h8.732
				c0.72,0,1.304,0.584,1.304,1.304c0,0.72-0.584,1.304-1.304,1.304h-8.732c-0.72,0-1.304-0.584-1.304-1.304
				C256.244,81.994,256.828,81.41,257.548,81.41z"/>
			<path d="M132.944,153.654h-2.172c-0.684-1.144-1.888-1.948-3.324-1.948c-2.16,0-3.916,1.74-3.916,3.876s1.756,3.876,3.916,3.876
				c1.436,0,2.64-0.804,3.324-1.948h2.172v38.172h13.492v-77.48h-13.492V153.654z M127.448,158.322
				c-1.536,0-2.784-1.232-2.784-2.744c0-1.512,1.248-2.744,2.784-2.744c0.772,0,1.472,0.312,1.976,0.816h-2.06
				c-1.064,0-1.924,0.864-1.924,1.924c0,1.064,0.864,1.924,1.924,1.924h2.06C128.92,158.01,128.22,158.322,127.448,158.322z
				 M130.068,156.374h-2.704c-0.428,0-0.792-0.364-0.792-0.792c0-0.428,0.364-0.792,0.792-0.792h2.704
				c0.084,0.252,0.164,0.508,0.164,0.792C130.232,155.862,130.148,156.118,130.068,156.374z M131.204,156.37
				c0.056-0.264,0.164-0.512,0.164-0.792c0-0.28-0.104-0.528-0.164-0.792h7.076c0.436,0,0.792,0.356,0.792,0.792
				c0,0.436-0.356,0.792-0.792,0.792H131.204z M135.212,120.462h8.96v72.948h-8.96v-35.908h3.072c1.064,0,1.924-0.864,1.924-1.924
				c0-1.064-0.864-1.924-1.924-1.924h-3.072V120.462z M134.148,153.626c0.036,0.004,0.052,0.028,0.084,0.028h-0.224
				C134.06,153.65,134.096,153.626,134.148,153.626z"/>
		</g>
	</g>
</g>
<g>
</g>
<g>
</g>
<g>
</g>
<g>
</g>
<g>
</g>
<g>
</g>
<g>
</g>
<g>
</g>
<g>
</g>
<g>
</g>
<g>
</g>
<g>
</g>
<g>
</g>
<g>
</g>
<g>
</g>
</svg>
