<?xml version="1.0" encoding="iso-8859-1"?>
<!-- Generator: Adobe Illustrator 19.0.0, SVG Export Plug-In . SVG Version: 6.00 Build 0)  -->
<svg version="1.1" id="Layer_1" xmlns="http://www.w3.org/2000/svg" xmlns:xlink="http://www.w3.org/1999/xlink" x="0px" y="0px"
	 viewBox="0 0 301.112 301.112" style="enable-background:new 0 0 301.112 301.112;" xml:space="preserve">
<g>
	<g>
		<g>
			<path d="M300.404,45.032l-20.548-11.86c-0.436-0.252-0.98-0.252-1.416,0c-0.436,0.252-0.708,0.724-0.708,1.228v6.428H1.416
				C0.632,40.828,0,41.464,0,42.244v8.036c0,0.784,0.636,1.416,1.416,1.416h57.57c-0.13,0.609-0.218,1.193-0.218,1.76
				c0,4.553,3.351,8.326,7.712,9.011V87.82H43.708c-12.124,0-21.984,9.86-21.984,21.984v136.34c0,12.124,9.86,21.984,21.984,21.984
				h188.868c12.124,0,21.984-9.86,21.984-21.984v-136.34c0-12.124-9.86-21.984-21.984-21.984H209.8V62.467
				c4.364-0.684,7.716-4.457,7.72-9.007c0-0.568-0.088-1.154-0.219-1.764h60.431v6.428c0,0.508,0.272,0.976,0.708,1.228
				c0.216,0.128,0.464,0.192,0.708,0.192c0.244,0,0.488-0.064,0.708-0.196l20.548-11.86c0.436-0.252,0.708-0.72,0.708-1.228
				S300.84,45.284,300.404,45.032z M62.736,53.456c0-0.004,0-0.012,0-0.016H73.06c0,0.004,0,0.012,0,0.016
				c0,2.848-2.32,5.164-5.164,5.164C65.052,58.62,62.736,56.3,62.736,53.456z M232.576,91.788c9.932,0,18.016,8.084,18.016,18.016
				v136.34c0,9.932-8.084,18.016-18.016,18.016H43.708c-9.932,0-18.016-8.084-18.016-18.016v-136.34
				c0-9.932,8.084-18.016,18.016-18.016v0H66.48v6.565c-4.168,0.68-7.364,4.294-7.364,8.655c0,4.844,3.94,8.784,8.78,8.784
				c4.84,0,8.784-3.944,8.784-8.784c0-4.357-3.199-7.974-7.368-8.655v-6.565h137.656v6.565c-4.168,0.68-7.364,4.294-7.364,8.655
				c0,4.844,3.94,8.784,8.78,8.784c4.844,0,8.784-3.944,8.784-8.784c0-4.357-3.199-7.974-7.368-8.655v-6.565H232.576z
				 M67.896,108.428c0.784,0,1.416-0.636,1.416-1.416v-5.771c2.597,0.637,4.532,2.976,4.532,5.767c0,3.28-2.672,5.948-5.948,5.948
				s-5.944-2.672-5.944-5.948c0-2.788,1.932-5.129,4.528-5.767v5.771C66.48,107.792,67.112,108.428,67.896,108.428z
				 M208.384,108.428c0.784,0,1.42-0.636,1.416-1.416v-5.771c2.597,0.637,4.532,2.976,4.532,5.767c0,3.28-2.672,5.948-5.948,5.948
				s-5.944-2.672-5.944-5.948c0-2.788,1.932-5.129,4.528-5.767v5.771C206.968,107.792,207.6,108.428,208.384,108.428z
				 M213.548,53.456c0,2.848-2.32,5.164-5.164,5.164s-5.16-2.32-5.16-5.164c0-0.004,0-0.012,0-0.016h10.324
				C213.548,53.445,213.548,53.453,213.548,53.456z M206.968,62.467V87.82H69.312V62.467c4.364-0.684,7.716-4.458,7.716-9.011
				c0-0.567-0.088-1.151-0.218-1.76h122.664c-0.13,0.607-0.219,1.195-0.219,1.76C199.256,58.009,202.607,61.783,206.968,62.467z
				 M2.832,48.864v-5.2h274.9v5.2H2.832z M280.564,55.672V36.86l16.296,9.404L280.564,55.672z"/>
			<path d="M33.084,135.708v102.148c0,8.316,6.764,15.08,15.08,15.08h122.88c0.78,0,1.416-0.636,1.416-1.416
				c0-0.78-0.632-1.416-1.416-1.416H48.164c-6.752,0-12.244-5.492-12.244-12.244V135.708c0-6.752,5.492-12.244,12.244-12.244
				h178.164c6.752,0,12.244,5.492,12.244,12.244v102.16c0,6.752-5.492,12.244-12.244,12.244c-0.78,0-1.416,0.636-1.416,1.416
				c0,0.78,0.632,1.416,1.416,1.416c8.316,0,15.08-6.768,15.084-15.084V135.708c0-8.316-6.764-15.08-15.08-15.08H48.164
				C39.848,120.628,33.084,127.393,33.084,135.708z"/>
			<path d="M96.112,229.716h5.244c0.596,0,1.08-0.484,1.084-1.08v-23.84c0-0.596-0.484-1.08-1.08-1.08h-5.244
				c-0.596,0-1.08,0.484-1.08,1.08v8.456h-8.504v-8.456c0-0.596-0.484-1.08-1.08-1.08h-5.316c-0.596,0-1.08,0.484-1.08,1.08v23.84
				c0,0.596,0.484,1.08,1.08,1.08h5.312c0.596,0,1.08-0.484,1.08-1.08v-8.356h8.504v8.356
				C95.032,229.232,95.516,229.716,96.112,229.716z M85.452,218.124c-0.596,0-1.08,0.484-1.08,1.08v8.356h-3.16v-21.684h3.16v8.456
				c0,0.596,0.484,1.08,1.08,1.08h10.66c0.596,0,1.08-0.484,1.08-1.08v-8.456h3.088v21.684h-3.088v-8.356
				c0-0.596-0.484-1.08-1.08-1.08H85.452z"/>
			<path d="M118.196,207.868c-4.984,0-8.74,3.792-8.74,8.812c0,5.084,3.676,8.776,8.74,8.776c5.148,0,8.74-3.608,8.74-8.776
				C126.936,211.572,123.26,207.868,118.196,207.868z M118.196,223.304c-3.876,0-6.584-2.72-6.584-6.62
				c0-3.856,2.768-6.656,6.584-6.656c3.876,0,6.584,2.736,6.584,6.656C124.78,220.64,122.136,223.304,118.196,223.304z"/>
			<path d="M118.196,203.101c-8.344,0-13.952,5.456-13.952,13.58c0,8.124,5.608,13.58,13.952,13.58
				c8.344,0,13.952-5.456,13.952-13.58C132.148,208.557,126.54,203.101,118.196,203.101z M118.196,228.101
				c-7.164,0-11.796-4.484-11.796-11.42c0-6.936,4.628-11.42,11.796-11.42c7.168,0,11.796,4.484,11.796,11.42
				C129.992,223.617,125.36,228.101,118.196,228.101z"/>
			<path d="M139.808,229.68h5.276c0.596,0,1.076-0.48,1.08-1.08v-18.028h6.176c0.596,0,1.08-0.484,1.08-1.08v-4.736
				c0-0.596-0.484-1.08-1.08-1.08h-19.788c-0.596,0-1.08,0.484-1.08,1.08v4.736c0,0.596,0.484,1.08,1.08,1.08h6.176V228.6
				C138.728,229.196,139.212,229.68,139.808,229.68z M133.628,208.416v-2.58h17.632v2.58h-6.176c-0.596,0-1.08,0.484-1.08,1.08
				v18.028h-3.12h0v-18.028c0-0.596-0.484-1.08-1.08-1.08H133.628z"/>
			<path d="M173.736,222.624h-11.864v-2.644h10.672c0.596,0,1.08-0.484,1.08-1.08v-4.668c0-0.596-0.484-1.076-1.08-1.076h-10.672
				v-2.444h11.388c0.596,0,1.08-0.484,1.08-1.08v-4.872c0-0.596-0.484-1.08-1.08-1.08h-17.676c-0.596,0-1.076,0.484-1.076,1.08
				v23.84c0,0.596,0.48,1.08,1.076,1.08h18.156c0.596,0,1.076-0.48,1.076-1.072v-4.904
				C174.816,223.108,174.332,222.624,173.736,222.624z M172.664,227.524h-15.996v-21.692h15.52v2.716H160.8
				c-0.596,0-1.08,0.484-1.08,1.08v4.6c0,0.596,0.484,1.08,1.08,1.08h10.672v2.508H160.8c-0.596,0-1.08,0.484-1.08,1.08v4.8
				c0,0.596,0.484,1.08,1.08,1.08h11.864V227.524z"/>
			<path d="M195.176,222.656h-10.84V204.76c0-0.596-0.484-1.08-1.08-1.08h-5.316c-0.596,0-1.08,0.484-1.08,1.08v23.84
				c0,0.596,0.484,1.08,1.08,1.08h17.236c0.596,0,1.076-0.48,1.08-1.076v-4.868C196.256,223.14,195.772,222.656,195.176,222.656z
				 M194.1,227.524h-15.084v-21.688h3.164v17.896c0,0.596,0.48,1.08,1.076,1.08H194.1V227.524z"/>
			<path d="M157.684,172.008c0.848-2.252,1.692-4.508,2.524-6.768c0.042-0.115,0.089-0.203,0.137-0.281
				c3.244-0.295,5.791-3.027,5.791-6.343c0-3.512-2.86-6.368-6.372-6.368c-3.512,0-6.368,2.856-6.368,6.368
				c0,1.079,0.271,2.094,0.745,2.985c-0.057,0.06-0.122,0.124-0.177,0.179c-0.1,0.092-0.2,0.188-0.284,0.284l-3.572,3.852
				l-0.82-3.364c-0.527-2.176-1.058-4.351-1.597-6.527c2.322-1.026,3.949-3.347,3.949-6.045c0-3.644-2.964-6.608-6.608-6.608
				c-3.644,0-6.608,2.964-6.608,6.608c0,2.151,1.037,4.059,2.633,5.266c-0.915,2.325-1.82,4.653-2.725,6.986l-0.808,2.052
				l-0.872-2.248c-0.852-2.203-1.704-4.406-2.57-6.789c1.279-1.231,2.078-2.956,2.078-4.867c0-3.728-3.028-6.76-6.756-6.76
				c-3.728,0-6.76,3.032-6.76,6.76c0,2.96,1.914,5.475,4.568,6.388c-0.546,2.15-1.071,4.303-1.592,6.46l-0.648,2.676l-1.376-1.492
				c-0.795-0.868-1.606-1.749-2.483-2.707c0.51-0.916,0.803-1.969,0.803-3.089c0-3.512-2.856-6.368-6.372-6.368
				s-6.372,2.856-6.372,6.368c0,3.244,2.437,5.921,5.572,6.316c0.02,0.05,0.039,0.099,0.056,0.144l1.524,4.04
				c1.344,3.56,2.688,7.116,3.976,10.692c0.228,0.635,0.525,1.117,0.904,1.475v6.593c0,0.564,0.564,1.128,1.128,1.128h30.64
				c0.568,0,1.128-0.564,1.128-1.128v-6.72c0-0.014-0.009-0.028-0.01-0.042c0.251-0.3,0.46-0.667,0.626-1.122
				C155.688,177.324,156.688,174.664,157.684,172.008z M159.764,154.288c2.388,0,4.332,1.94,4.332,4.332
				c0,2.388-1.944,4.332-4.332,4.332s-4.332-1.944-4.332-4.332S157.376,154.288,159.764,154.288z M145.032,145.408
				c2.516,0,4.572,2.052,4.572,4.572c0,2.52-2.052,4.572-4.572,4.572c-2.52,0-4.572-2.052-4.572-4.572
				C140.46,147.46,142.512,145.408,145.032,145.408z M124.684,150.38c0-2.6,2.12-4.72,4.72-4.72c2.604,0,4.72,2.12,4.72,4.72
				c0,2.6-2.12,4.72-4.72,4.72C126.804,155.1,124.684,152.98,124.684,150.38z M111.212,158.62c0-2.388,1.944-4.332,4.332-4.332
				c2.392,0,4.336,1.94,4.332,4.332c0,2.388-1.944,4.332-4.332,4.332S111.212,161.008,111.212,158.62z M118.236,168.404
				l-1.344-3.563c1.11-0.24,2.109-0.773,2.921-1.509c0.765,0.819,1.523,1.641,2.283,2.463l1.868,2.024
				c0.16,0.172,0.34,0.328,0.564,0.512l0.3,0.252c0.26,0.224,0.616,0.308,0.952,0.208c0.332-0.096,0.592-0.352,0.692-0.684
				l0.132-0.428c0.092-0.296,0.168-0.536,0.228-0.784l0.772-3.192c0.528-2.192,1.061-4.387,1.619-6.573
				c0.061,0.002,0.12,0.009,0.181,0.009c1.039,0,2.019-0.242,2.899-0.663c0.823,2.098,1.635,4.198,2.449,6.299l1.444,3.72
				c0.068,0.18,0.16,0.352,0.268,0.552l0.136,0.248c0.156,0.308,0.524,0.428,0.868,0.468c0.336,0.028,0.748-0.188,0.968-0.46
				c0.1-0.128,0.228-0.284,0.32-0.508l1.484-3.824c0.874-2.251,1.747-4.502,2.634-6.753c0.677,0.235,1.401,0.369,2.158,0.369
				c0.233,0,0.464-0.013,0.691-0.037c0.536,2.158,1.065,4.323,1.589,6.485l1.028,4.216c0.072,0.276,0.188,0.5,0.3,0.72l0.152,0.308
				c0.144,0.308,0.432,0.524,0.768,0.576c0.332,0.048,0.672-0.064,0.908-0.316l4.72-5.092l0.196-0.196
				c0.004-0.004,0.008-0.008,0.011-0.011c0.778,0.736,1.74,1.276,2.81,1.546c-0.8,2.173-1.615,4.343-2.43,6.509
				c-1,2.664-2,5.332-2.976,8.004c-0.158,0.438-0.244,0.663-0.51,0.732h-0.518c-9.404-0.048-18.808-0.052-28.212,0
				c-0.976,0-1.06-0.132-1.336-0.904C120.932,175.54,119.584,171.972,118.236,168.404z M152.064,186.964h-28.816v-4.892h28.816
				V186.964z"/>
		</g>
	</g>
</g>
<g>
</g>
<g>
</g>
<g>
</g>
<g>
</g>
<g>
</g>
<g>
</g>
<g>
</g>
<g>
</g>
<g>
</g>
<g>
</g>
<g>
</g>
<g>
</g>
<g>
</g>
<g>
</g>
<g>
</g>
</svg>
