<?xml version="1.0" encoding="iso-8859-1"?>
<!-- Generator: Adobe Illustrator 19.0.0, SVG Export Plug-In . SVG Version: 6.00 Build 0)  -->
<svg version="1.1" id="Layer_1" xmlns="http://www.w3.org/2000/svg" xmlns:xlink="http://www.w3.org/1999/xlink" x="0px" y="0px"
	 viewBox="0 0 238.032 238.032" style="enable-background:new 0 0 238.032 238.032;" xml:space="preserve">
<g>
	<g>
		<g>
			<path d="M193.944,7.94c-14.592,0-134.012,17.648-148.748,19.84L18.688,12.02l-1.032,0.652C6.928,19.5,0,35.008,0,52.188
				s6.928,32.688,17.656,39.516l1.032,0.652l24.5-14.568C53.444,79.46,112.08,88.984,153.52,94.98
				c2.752,20.504,5.876,47.048,4.672,52.128c-4.364,18.356-8.516,42.42,0.348,54.132l-2.792,7.804l-0.048,0.784l0.248,0.84
				c0.776,1.384,3.368,2.704,5.396,3.572c-2.276,3.736-5.176,6.148-8.716,7.024c-5.084,1.252-11.76-0.564-17.884-4.852
				c-6.948-4.864-7.356-12.896-7.828-22.196l-0.184-3.36c-1.332-21.916-10.58-37.52-25.364-42.808
				c-11.416-4.084-24.496-1.008-32.536,7.656c-8.344,8.996-9.704,21.86-3.728,35.284c0.304,0.684,0.696,1.512,1.136,2.456
				c3.636,7.72,11.2,23.78,3.724,29.46c-6.608,5.032-14.872,2.996-19.2,1.336c-5.876-2.248-9.628-5.612-10.312-7.072
				c4.852-6.36,4.288-15.48-1.648-21.096l-7.788-7.376l-4.504,4.76l-3.708-3.508c-0.548-0.52-1.256-0.8-2.012-0.8h-0.08
				c-0.784,0.02-1.512,0.344-2.048,0.912c-0.54,0.568-0.82,1.312-0.8,2.096c0.024,0.78,0.344,1.508,0.912,2.044l3.708,3.512
				l-4.748,5.02l-3.716-3.504c-1.184-1.108-3.04-1.044-4.14,0.116h0.008c-1.104,1.176-1.056,3.036,0.116,4.14l3.724,3.496
				l-4.512,4.772l7.788,7.372c2.956,2.8,6.808,4.324,10.888,4.324c0.152,0,0.304,0,0.456-0.004c3.428-0.096,6.624-1.3,9.268-3.36
				c2.096,2.832,6.552,5.912,11.728,7.892c2.624,1.004,6.488,2.116,10.736,2.116c4.008,0,8.356-0.992,12.316-4
				c10.052-7.64,1.56-25.684-2.524-34.356c-0.428-0.912-0.808-1.716-1.1-2.376c-5.296-11.896-4.2-23.172,3.004-30.936
				c6.964-7.508,18.332-10.16,28.252-6.612c13.208,4.728,21.488,19.044,22.72,39.284l0.18,3.32
				c0.504,9.916,0.98,19.284,9.528,25.264c3.392,2.376,12.232,7.648,21.136,5.46c4.836-1.196,8.7-4.44,11.58-9.504
				c1.56,0.476,3.804,1.056,5.516,1.056c0.572,0,1.076-0.068,1.476-0.22l1.196-1.136l3.22-9c3.14-1.456,5.852-4.012,7.488-7.584
				L228.36,86.364c0.648-1.656,0.912-3.36,0.904-5.036c5.48-7.664,8.768-17.128,8.768-27.404
				C238.032,28.568,218.256,7.94,193.944,7.94z M18.796,87.676C9.752,81.236,3.972,67.48,3.972,52.184s5.78-29.052,14.82-35.492
				l5.54,3.292c-8.588,6.676-13.988,18.824-13.988,32.2c0,13.372,5.4,25.524,13.988,32.2L18.796,87.676z M44.504,72.388
				L25.94,83.428c-8.5-6.244-13.896-18.1-13.896-31.24c0-13.144,5.392-24.996,13.896-31.24L44.356,31.9
				c0.004,0.004,0.008,0.012,0.012,0.024c0.012-0.004,0.016-0.004,0.028-0.008l0.108,0.064V72.388z M19.568,193.38
				c-0.348-0.328-0.544-0.772-0.56-1.252c-0.012-0.484,0.16-0.936,0.488-1.284c0.328-0.348,0.772-0.544,1.252-0.56H20.8
				c0.46,0,0.9,0.172,1.232,0.488l3.768,3.452l-2.584,2.732L19.568,193.38z M10.788,202.664c-0.72-0.68-0.752-1.82-0.076-2.54
				c0.688-0.72,1.82-0.752,2.54-0.076l3.704,3.516l-2.448,2.588L10.788,202.664z M36.964,216.168
				c-2.276,2.404-5.368,3.784-8.708,3.872c-3.36,0.088-6.504-1.108-8.916-3.388l-5.32-5.036l17.136-18.108l5.32,5.032
				c2.408,2.276,3.784,5.372,3.876,8.712C40.444,210.592,39.244,213.756,36.964,216.168z M162.052,148.02
				c0.492-2.072,0.408-6.78-0.012-12.812l7.464-0.616l-0.092-1.132l-7.452,0.616c-0.1-1.34-0.212-2.724-0.34-4.168l9.22-0.76
				l-0.092-1.132l-9.228,0.76c-0.172-1.892-0.372-3.868-0.58-5.88l14.356-1.184c2.068-0.168,3.948-1.12,5.3-2.684
				c1.36-1.572,2.016-3.556,1.844-5.588c-0.348-4.204-4.004-7.352-8.408-6.988l-14.848,1.228c-0.52-4.196-1.056-8.3-1.568-12.108
				c17.884,2.556,31.936,4.34,36.328,4.34c7.192,0,13.968-1.844,19.972-5.044l-40.504,105.936c-1.22-0.604-2.6-1.216-4.152-1.772
				c-1.94-0.696-6.472-2.156-8.48-1.588C153.332,184.952,159.696,157.944,162.052,148.02z M159.46,109.924l14.76-1.22
				c2.988-0.192,5.716,1.956,5.96,4.916c0.116,1.42-0.344,2.812-1.3,3.916c-0.96,1.108-2.3,1.788-3.772,1.912l-14.408,1.188
				C160.32,117.128,159.9,113.516,159.46,109.924z M170.868,213.864c-0.852,0.024-3.184-0.288-6.4-1.44
				c-3.236-1.156-5.232-2.372-5.864-2.944l3.352-9.364c0.948,0.044,3.216,0.464,6.348,1.588c3.276,1.172,5.192,2.252,5.916,2.8
				L170.868,213.864z M180.412,197.2c-1.02,2.224-2.616,3.92-4.488,5.036c-0.456-0.348-0.944-0.628-1.296-0.828
				c-0.056-0.032-0.136-0.064-0.192-0.096l41.02-107.288c2.888-1.692,5.552-3.728,7.996-6.032L180.412,197.2z M193.944,95.94
				c-13.1,0-119.048-17.032-145.472-21.312V31.3c22.248-3.284,132-19.392,145.472-19.392c22.12,0,40.12,18.848,40.12,42.016
				C234.064,77.092,216.064,95.94,193.944,95.94z"/>
			<path d="M187.104,42.624c-1.336-1.336-3.68-1.336-5.016,0l-15.46,15.456c-1.384,1.388-1.384,3.636,0.02,5.036l0.06,0.056
				c0.668,0.664,1.556,1.028,2.5,1.028c0.948,0,1.84-0.368,2.508-1.036l15.46-15.456C188.556,46.324,188.556,44.072,187.104,42.624z
				 M185.976,46.504l-15.46,15.456c-0.696,0.696-1.916,0.696-2.608,0l-0.072-0.068c-0.72-0.716-0.72-1.888,0-2.608l15.46-15.456
				c0.348-0.348,0.808-0.54,1.304-0.54s0.956,0.192,1.376,0.604C186.696,44.612,186.696,45.788,185.976,46.504z"/>
			<path d="M203.28,42.096c-0.668-0.668-1.564-1.036-2.512-1.036c0,0,0,0-0.004,0c-0.948,0-1.84,0.368-2.504,1.036L182.8,57.552
				c-1.38,1.38-1.38,3.632,0.02,5.032l0.06,0.06c0.668,0.664,1.556,1.028,2.5,1.028c0.948,0,1.84-0.368,2.508-1.036l15.46-15.456
				C204.728,45.796,204.728,43.544,203.28,42.096z M202.144,45.972l-15.46,15.456c-0.696,0.696-1.916,0.696-2.608,0l-0.072-0.068
				c-0.72-0.716-0.72-1.892,0-2.608l15.46-15.456c0.348-0.348,0.808-0.54,1.304-0.54s0.96,0.192,1.376,0.604
				C202.864,44.08,202.864,45.256,202.144,45.972z"/>
			<path d="M214.432,41.552l-15.456,15.46c-0.672,0.672-1.04,1.564-1.04,2.512c0,0.948,0.368,1.84,1.02,2.488l0.084,0.088
				c0.692,0.692,1.596,1.036,2.508,1.036s1.816-0.344,2.512-1.036l15.456-15.46c0.668-0.664,1.036-1.556,1.036-2.504
				c0.004-0.952-0.368-1.844-1.1-2.584C218.064,40.164,215.812,40.18,214.432,41.552z M218.312,45.436l-15.456,15.46
				c-0.72,0.72-1.896,0.72-2.612,0l-0.068-0.072c-0.348-0.348-0.54-0.808-0.54-1.304c0-0.496,0.192-0.952,0.54-1.3l15.456-15.46
				c0.352-0.352,0.812-0.532,1.284-0.532c0.488,0,0.992,0.196,1.396,0.596c0.348,0.348,0.54,0.812,0.54,1.308
				C218.852,44.628,218.66,45.088,218.312,45.436z"/>
			<path d="M115.776,30.46c-12.756,0-23.132,10.376-23.132,23.132c0,12.756,10.376,23.132,23.132,23.132
				c12.756,0,23.132-10.376,23.132-23.132C138.908,40.836,128.532,30.46,115.776,30.46z M96.436,45.848
				c0.6-0.764,1.492-1.292,2.536-1.292c1.804,0,3.272,1.468,3.272,3.276c0,1.804-1.468,3.272-3.272,3.272
				c-1.724,0-3.1-1.352-3.228-3.04C95.952,47.32,96.148,46.564,96.436,45.848z M94.908,53.592c0-0.968,0.156-1.892,0.284-2.828
				c0.752,0.964,1.824,1.604,3.088,1.792c0.032,0.076,0.076,0.14,0.096,0.2l1.156,3.068c1.024,2.708,2.048,5.416,3.028,8.132
				c0.172,0.484,0.412,0.828,0.696,1.1v4.996c0,0.072,0.072,0.132,0.096,0.204C98.26,66.448,94.908,60.424,94.908,53.592z
				 M101.036,55.26l-1.044-2.764c0.832-0.18,1.592-0.52,2.208-1.068c0.588,0.628,1.168,1.26,1.752,1.892l1.416,1.532
				c0.116,0.128,0.248,0.244,0.416,0.376l0.244,0.208c0.2,0.176,0.488,0.248,0.744,0.164c0.26-0.076,0.464-0.272,0.544-0.536
				l0.104-0.348c0.068-0.216,0.12-0.392,0.164-0.572l0.596-2.464c0.376-1.668,0.78-3.32,1.2-4.976c0.044,0,0.084,0.024,0.128,0.024
				c0.788,0,1.516-0.208,2.184-0.524c0.632,1.612,1.26,3.224,1.884,4.84l1.084,2.792c0.052,0.132,0.116,0.256,0.196,0.408
				l0.104,0.196c0.12,0.244,0.408,0.34,0.676,0.368c0.292,0.028,0.584-0.148,0.752-0.36c0.08-0.096,0.176-0.22,0.244-0.392
				l1.092-2.812c0.68-1.752,1.364-3.508,2.052-5.256c0.512,0.176,1.04,0.328,1.616,0.328c0.176,0,0.324-0.084,0.492-0.1
				c0,0.008,0,0.012,0.004,0.02c0.4,1.604,0.788,3.216,1.18,4.824l0.816,3.336c0.056,0.224,0.148,0.404,0.24,0.58l0.112,0.22
				c0.112,0.236,0.336,0.404,0.596,0.44c0.252,0.016,0.52-0.056,0.7-0.248l3.584-3.868l0.148-0.148
				c0.008-0.004,0.012-0.012,0.02-0.016c0.584,0.552,1.324,0.892,2.124,1.1c-0.596,1.624-1.204,3.244-1.812,4.864
				c-0.78,2.076-1.56,4.148-2.316,6.228c-0.176,0.48-0.296,0.552-0.764,0.548c-7.148-0.04-14.292-0.04-21.448,0
				c-0.616,0.076-0.788-0.088-0.996-0.676C103.088,60.692,102.064,57.976,101.036,55.26z M105.936,41.572
				c0-1.972,1.6-3.572,3.572-3.572c1.972,0,3.572,1.6,3.572,3.572s-1.604,3.572-3.572,3.572S105.936,43.544,105.936,41.572z
				 M117.928,41.272c0-1.904,1.552-3.456,3.452-3.456c1.908,0,3.456,1.552,3.456,3.456s-1.548,3.456-3.456,3.456
				C119.476,44.728,117.928,43.176,117.928,41.272z M126.708,65.68v3.684H104.84V65.68h0.18h0.04c7.136-0.044,14.284-0.032,21.428,0
				h0.02H126.708z M115.776,74.46c-4.268,0-8.236-1.3-11.544-3.508h23.088C124.012,73.16,120.044,74.46,115.776,74.46z
				 M136.64,53.592c0.004,6.832-3.348,12.856-8.44,16.664c0.024-0.072,0.096-0.132,0.096-0.204v-5.056c0-0.02-0.024-0.04-0.028-0.06
				c0.192-0.228,0.36-0.496,0.488-0.844c0.752-2.076,1.532-4.14,2.308-6.212c0.624-1.664,1.248-3.328,1.868-5.004
				c0.06-0.168,0.14-0.216,0.216-0.292c1.316-0.16,2.432-0.816,3.208-1.812C136.484,51.704,136.64,52.628,136.64,53.592z
				 M135.112,45.84c0.288,0.72,0.488,1.48,0.696,2.24c-0.128,1.688-1.504,3.032-3.224,3.032c-1.808,0-3.276-1.468-3.276-3.272
				c0-1.808,1.468-3.276,3.276-3.276C133.624,44.56,134.512,45.08,135.112,45.84z M132.588,42.972c-2.684,0-4.864,2.18-4.864,4.864
				c0,0.812,0.248,1.544,0.604,2.216c-0.04,0.052-0.104,0.116-0.164,0.172l-2.916,3.12l-0.648-2.66
				c-0.38-1.576-0.764-3.152-1.16-4.836c1.752-0.792,2.984-2.536,2.984-4.58c0-2.78-2.26-5.044-5.044-5.044
				c-2.776,0-5.04,2.26-5.04,5.044c0,1.628,0.824,3.012,2.024,3.932c-0.716,1.824-1.424,3.644-2.132,5.464L115.68,52.1l-0.632-1.632
				c-0.656-1.688-1.308-3.392-1.976-5.204c0.972-0.94,1.584-2.24,1.584-3.692c0-2.844-2.312-5.156-5.156-5.156
				s-5.156,2.312-5.156,5.156c0,2.248,1.464,4.108,3.472,4.816c-0.416,1.632-0.812,3.268-1.208,4.908l-0.492,2.044l-1.02-1.1
				c-0.62-0.672-1.252-1.36-1.928-2.1c0.384-0.696,0.66-1.452,0.66-2.3c0-2.684-2.18-4.864-4.86-4.864c-0.42,0-0.8,0.14-1.188,0.24
				c3.612-6.24,10.284-10.492,17.996-10.492c7.708,0,14.38,4.252,17.996,10.488C133.384,43.112,133.008,42.972,132.588,42.972z"/>
		</g>
	</g>
</g>
<g>
</g>
<g>
</g>
<g>
</g>
<g>
</g>
<g>
</g>
<g>
</g>
<g>
</g>
<g>
</g>
<g>
</g>
<g>
</g>
<g>
</g>
<g>
</g>
<g>
</g>
<g>
</g>
<g>
</g>
</svg>
