<?xml version="1.0" encoding="iso-8859-1"?>
<!-- Generator: Adobe Illustrator 19.0.0, SVG Export Plug-In . SVG Version: 6.00 Build 0)  -->
<svg version="1.1" id="Layer_1" xmlns="http://www.w3.org/2000/svg" xmlns:xlink="http://www.w3.org/1999/xlink" x="0px" y="0px"
	 viewBox="0 0 304.724 304.724" style="enable-background:new 0 0 304.724 304.724;" xml:space="preserve">
<g>
	<g>
		<g>
			<path d="M233.656,183.112c-0.152,0.076-0.32,0.092-0.456,0.208c-4.904,4.1-9.8,3.448-13.652,0.1l1.864-19.212
				c1.728-0.424,3.124-0.868,4.08-1.34c0.716-0.408,1.504-0.948,1.88-1.712l0.404-0.492l-0.112-0.872
				c-0.036-0.24-0.788-5.856-1.676-8.712l-0.012-0.044c0.008-0.068,0.04-0.136,0.04-0.204c0-2.076-0.024-5.544-34.676-7.508
				c-0.344-1.812-0.66-3.628-1.08-5.444c-2.188-9.504-4.244-18.812-5.3-28.208c-1.92-16.98,1.78-61.504,4.388-81.648
				c0.5-0.14,0.984-0.348,1.412-0.664c0.932-0.688,1.54-1.696,1.712-2.832l0.1-0.668c0.3-2.028-0.9-3.868-2.728-4.596l1.244-8.26
				c0.684-4.564-2.588-8.856-7.296-9.568l-8.928-1.344c-4.684-0.676-9.096,2.428-9.788,6.996l-1.244,8.268
				c-1.944,0.176-3.628,1.564-3.94,3.588l-0.096,0.656c-0.26,1.736,0.568,3.376,1.952,4.272c-3.436,20.012-13.004,63.64-19.84,79.32
				c-3.78,8.672-8.484,16.964-13.372,25.4c-2.712,4.68-5.1,9.452-7.216,14.288c-43.956,1.704-43.984,5.908-43.984,7.952
				c0,0.076,0.036,0.152,0.044,0.228l-0.1,0.332c-0.832,2.756-1.56,8.172-1.588,8.404l-0.132,1.024l1.94,1.788l0.468,0.324
				c0.84,0.412,2.02,0.808,3.48,1.184L83.5,184.42c-1.204,0.976-2.568,1.74-4.284,2.232c-7.992,0.284-11.516-9.636-20.236-6.908
				c-4.92,1.54-8.04,6.26-8.724,11.216c-1.66,12.024,10.916,20.928,20.192,12.124c0.148-0.076,0.312-0.092,0.44-0.208
				c5.336-4.604,10.704-3.296,14.596,1.172l8.216,81.268c0,1.308,0.784,2.456,2.148,3.468c-0.2,2.496,0.072,5.404,0.104,5.656
				c0,0.848,0.308,1.164,1.464,2.344l0.432,0.336c5.148,2.94,24.408,7.604,54.16,7.604c29.8,0,49.076-4.664,54.336-7.676
				c0.792-0.524,1.3-1.06,1.548-1.632l0.228-0.82c0.036-0.432,0.264-3.592-0.004-6.2c0.968-0.864,1.528-1.824,1.528-2.892
				l7.856-80.944c1.876-2.448,3.94-4.132,7.12-5.024c8.236-0.284,11.868,9.632,20.852,6.904c5.068-1.54,8.284-6.256,8.992-11.212
				C256.176,183.212,243.216,174.312,233.656,183.112z M220.684,150.844c-3.672,1.208-12.908,2.524-27.664,3.428
				c-0.252-2.308-0.56-4.616-0.932-6.928C209.036,148.344,217.404,149.788,220.684,150.844z M167.876,7.508
				c0.456-3.016,3.38-5.096,6.564-4.612l8.928,1.344c3.16,0.476,5.368,3.324,4.916,6.34l-1.216,8.068l-20.408-3.072L167.876,7.508z
				 M162.604,20.016l0.092-0.652c0.124-0.816,0.888-1.384,1.704-1.256l0.968,0.144l23.144,3.484c0.816,0.124,1.38,0.888,1.256,1.696
				l-0.1,0.668c-0.06,0.396-0.268,0.744-0.588,0.98c-0.32,0.236-0.716,0.336-1.108,0.276l-24.112-3.632
				C163.044,21.6,162.48,20.836,162.604,20.016z M165.604,24.856l19.768,2.976c-1.316,10.36-3.352,31.204-4.336,50.272l-26.08-3.924
				C159.628,55.664,163.816,35.14,165.604,24.856z M154.392,76.388l26.524,3.992c-0.532,11.192-0.652,21.488-0.012,28.428
				l-13.308,7.932c-1.444-0.792-3.024-1.364-4.72-1.616c-1.716-0.252-3.396-0.156-4.996,0.184l-11.428-12.776
				C148.992,96.08,151.752,86.676,154.392,76.388z M170.184,121.908c1.7,2.316,2.388,5.132,1.936,7.928
				c-0.956,5.968-6.776,10.068-13.08,9.152c-3.116-0.46-5.828-2.072-7.636-4.54c-1.7-2.316-2.388-5.132-1.936-7.928
				c0.868-5.404,5.756-9.28,11.316-9.28c0.58,0,1.168,0.044,1.76,0.128C165.664,117.824,168.372,119.436,170.184,121.908z
				 M124.008,146.744c0.032,0,0.06-0.004,0.092-0.004l-0.008-0.2c2.256-5.408,4.856-10.744,7.88-15.964
				c4.928-8.508,9.668-16.88,13.532-25.708l9.992,11.172c-4.244,1.724-7.516,5.424-8.268,10.116c-0.544,3.4,0.288,6.82,2.348,9.628
				c2.172,2.964,5.416,4.896,9.14,5.444c0.7,0.104,1.4,0.156,2.088,0.156c6.648,0,12.512-4.676,13.56-11.188
				c0.544-3.4-0.288-6.82-2.348-9.628c-0.676-0.924-1.488-1.704-2.352-2.416l11.512-6.864c1.116,9.2,3.092,18.256,5.216,27.484
				c1.208,5.26,2.064,10.508,2.644,15.732c-6.768,0.356-14.556,0.624-23.38,0.764l-8.464-7.416l-16.644,7.448
				c-7.184-0.088-13.724-0.26-19.608-0.496C121.864,152.096,122.9,149.416,124.008,146.744z M162.264,155.304
				c-3.4,0.04-6.9,0.068-10.588,0.068c-1.948,0-3.82-0.012-5.688-0.02l10.808-4.836L162.264,155.304z M119.636,146.916
				c-1.024,2.552-1.98,5.12-2.836,7.708c-18.556-0.884-29.956-2.404-34.136-3.776C86.496,149.612,97.116,147.864,119.636,146.916z
				 M69.024,199.388c-0.336,0.072-0.668,0.212-0.944,0.492c-6.432,6.572-14.02,0.848-14.02-6.784
				c-0.012-2.936,0.988-5.508,3.012-7.708c3.936-3.328,7.68-2.916,11.228,1.236c3.892,2.452,6.332,4.344,11.248,3.996
				c0.064-0.004,0.108-0.036,0.172-0.048c0.12-0.012,0.228,0.012,0.356-0.024c1.452-0.396,2.7-0.996,3.872-1.684l0.956,9.472
				C80.132,195.16,74.452,195.22,69.024,199.388z M204.204,293.708c-4.156,2.324-22.228,7.048-52.196,7.048
				c-29.528,0-47.496-4.604-51.96-6.956c-0.06-0.06-0.128-0.132-0.196-0.2c-0.064-0.824-0.096-1.828-0.096-2.808
				c12.612,4.784,41.42,5.248,51.916,5.248c10.684,0,40.348-0.48,52.58-5.416C204.276,291.732,204.256,292.864,204.204,293.708z
				 M205.7,285.184c-0.98,2.156-15.944,6.884-54.028,6.884s-53.048-4.728-54.02-6.956L87.104,180.74
				c8.776,5.452,41.6,7.516,64.748,7.516c22.472,0,54.068-1.944,63.924-7.048L205.7,285.184z M216.032,178.584
				c-3.484,2.952-25.336,7.404-64.176,7.404c-42.5,0-64.732-5.336-64.732-8.196h-0.312l-1.296-12.828
				c12.432,2.232,36.544,3.588,66.16,3.588c29.188,0,53.036-1.32,65.668-3.52L216.032,178.584z M151.676,164.584
				c-41.508,0-66.096-2.628-71.72-5.108l-0.192-0.176c0.184-1.228,0.512-3.344,0.892-5.092c0.284,0.044,0.596,0.084,0.884,0.128
				c-0.032-0.036-0.064-0.072-0.096-0.108c11.96,4.368,47.428,5.116,70.232,5.116c23.272,0,59.748-0.78,70.944-5.392
				c0.004,0,0.008,0,0.012,0c0.428,1.924,0.796,4.288,0.972,5.428C218.412,161.888,193.724,164.584,151.676,164.584z
				 M247.436,200.796c-4.056,3.328-7.912,2.916-11.568-1.236c-4.012-2.448-6.524-4.344-11.592-3.992
				c-0.068,0.004-0.112,0.036-0.176,0.048c-0.124,0.012-0.236-0.012-0.368,0.024c-2.216,0.588-4.016,1.584-5.64,2.796l1.012-10.408
				c4.844,2.96,10.548,2.844,16.016-1.228c0.348-0.072,0.688-0.212,0.972-0.492c6.628-6.568,14.448-0.848,14.448,6.784
				C250.556,196.028,249.52,198.596,247.436,200.796z"/>
			<path d="M150.408,126.636c-0.416,2.596,0.22,5.208,1.792,7.356c1.66,2.264,4.144,3.748,6.996,4.168
				c0.54,0.08,1.072,0.116,1.6,0.116c5.088,0,9.58-3.576,10.38-8.556c0.416-2.596-0.22-5.208-1.792-7.356
				c-1.66-2.264-4.144-3.744-6.996-4.164C156.644,117.336,151.292,121.136,150.408,126.636z M168.472,123.032
				c1.396,1.9,1.956,4.212,1.588,6.504c-0.784,4.888-5.56,8.244-10.7,7.5c-2.548-0.376-4.764-1.696-6.248-3.716
				c-1.396-1.9-1.956-4.208-1.588-6.504c0.712-4.428,4.716-7.604,9.256-7.604c0.476,0,0.956,0.036,1.44,0.104
				C164.772,119.692,166.992,121.012,168.472,123.032z"/>
		</g>
	</g>
</g>
<g>
</g>
<g>
</g>
<g>
</g>
<g>
</g>
<g>
</g>
<g>
</g>
<g>
</g>
<g>
</g>
<g>
</g>
<g>
</g>
<g>
</g>
<g>
</g>
<g>
</g>
<g>
</g>
<g>
</g>
</svg>
