<?xml version="1.0" encoding="iso-8859-1"?>
<!-- Generator: Adobe Illustrator 19.0.0, SVG Export Plug-In . SVG Version: 6.00 Build 0)  -->
<svg version="1.1" id="Layer_1" xmlns="http://www.w3.org/2000/svg" xmlns:xlink="http://www.w3.org/1999/xlink" x="0px" y="0px"
	 viewBox="0 0 294.024 294.024" style="enable-background:new 0 0 294.024 294.024;" xml:space="preserve">
<g>
	<g>
		<g>
			<path d="M278.528,81.636h-61.252c-2.552-10.94-37.688-15.724-66.556-16.656l48.872-43.068c1.064,0.6,2.268,0.972,3.564,0.972
				c4.108,0,7.448-3.428,7.448-7.632c0-4.208-3.344-7.632-7.448-7.632c-4.108,0-7.452,3.424-7.452,7.632
				c0,1.252,0.324,2.416,0.848,3.46l-52.2,46c-0.04,0.036-0.056,0.088-0.092,0.124c-1.38-0.02-2.744-0.028-4.072-0.028
				c-4.9,0-10.18,0.12-15.596,0.376c-0.048-0.076-0.068-0.16-0.128-0.232L79.38,11.28c0.584-1.088,0.948-2.32,0.948-3.648
				C80.328,3.424,76.984,0,72.876,0c-4.108,0-7.448,3.424-7.448,7.632c0,4.204,3.34,7.632,7.448,7.632
				c1.22,0,2.356-0.332,3.376-0.868l42.92,51.084c-26.268,1.656-53.82,6.516-56.068,16.156H15.492c-1.72,0-3.112,1.428-3.112,3.188
				V257.64c0,1.76,1.392,3.188,3.112,3.188H26.96v30.008c0,1.76,1.396,3.188,3.112,3.188h10.38c0.868,0,1.696-0.372,2.288-1.028
				c0.588-0.652,0.884-1.532,0.808-2.42l-0.128-1.172c0-7.964,6.324-14.444,14.104-14.444h176.808c7.776,0,14.1,6.48,14.052,14.888
				l-0.084,0.728c-0.072,0.888,0.224,1.764,0.808,2.42c0.592,0.652,1.42,1.028,2.292,1.028h10.38c1.72,0,3.112-1.428,3.112-3.188
				v-30.008h13.636c1.72,0,3.116-1.428,3.116-3.188V84.824C281.644,83.064,280.248,81.636,278.528,81.636z M203.156,12.084
				c1.708,0,3.092,1.424,3.092,3.172s-1.388,3.172-3.092,3.172c-1.704,0-3.096-1.424-3.096-3.172
				C200.06,13.508,201.448,12.084,203.156,12.084z M72.88,10.804c-1.704,0-3.092-1.424-3.092-3.172S71.172,4.46,72.88,4.46
				s3.092,1.424,3.092,3.172S74.584,10.804,72.88,10.804z M140.188,69.264c41.184,0,68.524,6.928,72.368,12.372H67.82
				C71.664,76.192,99.004,69.264,140.188,69.264z M254.58,287.652c-0.868-10.66-9.62-19.064-20.252-19.064H57.524
				c-10.632,0-19.384,8.404-20.252,19.064h-4.088v-26.82h225.48v26.82H254.58z M262.544,254.456
				c-0.252-0.068-0.492-0.156-0.764-0.156H30.072c-0.268,0-0.512,0.092-0.764,0.156H18.604V88.012h256.808v166.444H262.544z"/>
			<path d="M156.628,231.264H53.96c-9.064,0-16.432-7.548-16.432-16.832V166.24c5.352,0.336,8.236,3.556,11,6.708
				c2.948,3.356,5.996,6.832,11.992,6.832c5.996,0,9.04-3.472,11.988-6.832c3.056-3.48,5.944-6.776,11.9-6.776
				c5.952,0,8.84,3.296,11.904,6.78c2.944,3.352,5.992,6.828,11.988,6.828c5.996,0,9.04-3.472,11.988-6.832
				c0.808-0.924,0.736-2.344-0.168-3.176c-0.9-0.828-2.288-0.756-3.1,0.172c-2.72,3.1-4.68,5.336-8.72,5.336
				c-4.04,0-6-2.24-8.728-5.344c-3.236-3.68-7.252-8.264-15.16-8.264s-11.932,4.584-15.168,8.268c-2.72,3.1-4.68,5.336-8.72,5.336
				s-6-2.24-8.724-5.336c-3.1-3.532-6.964-7.86-14.268-8.204V140.54c5.052,0.492,7.852,3.612,10.54,6.668
				c2.944,3.36,5.988,6.836,11.992,6.836c5.988,0,9.036-3.472,11.988-6.836c3.056-3.48,5.944-6.776,11.896-6.776
				c5.956,0,8.844,3.296,11.904,6.776c2.944,3.36,5.988,6.836,11.988,6.836c5.992,0,9.04-3.472,11.992-6.836
				c2.92-3.332,5.936-6.776,11.896-6.776c4.696,0,7.464,2.136,9.552,4.224c0.876,0.868,2.256,0.848,3.108-0.04
				c0.844-0.892,0.828-2.312-0.036-3.184c-2.564-2.56-6.316-5.496-12.624-5.496c-7.916,0-11.936,4.584-15.164,8.268
				c-2.724,3.1-4.688,5.34-8.724,5.34c-4.04,0-6.004-2.24-8.724-5.344c-3.236-3.68-7.256-8.264-15.164-8.264
				c-7.904,0-11.928,4.584-15.164,8.268c-2.724,3.1-4.688,5.34-8.72,5.34c-4.044,0-6.008-2.24-8.724-5.34
				c-3.032-3.452-6.808-7.656-13.804-8.164v-13.2c0-5.576,2.72-10.792,7.268-13.944c0.996-0.696,1.256-2.076,0.584-3.1
				c-0.676-1.02-2.036-1.288-3.024-0.596c-5.748,3.988-9.18,10.58-9.18,17.64v91.592c-0.016,11.748,9.308,21.296,20.772,21.296
				h102.668c1.204,0,2.18-0.996,2.18-2.232C158.808,232.26,157.832,231.264,156.628,231.264z"/>
			<path d="M185.644,101.556H60.784c-1.204,0-2.176,0.996-2.176,2.232c-0.004,1.232,0.968,2.232,2.176,2.232h124.86
				c9.06,0,16.432,7.548,16.432,16.832v26.512c-3.144-0.464-5.028-2.424-7.42-5.152c-3.232-3.68-7.252-8.264-15.16-8.264
				c-3.36,0-6.3,0.828-8.996,2.536c-1.028,0.652-1.344,2.04-0.708,3.096c0.644,1.06,2,1.372,3.024,0.724
				c1.972-1.252,4.16-1.86,6.68-1.86c5.948,0,8.84,3.292,11.896,6.776c2.72,3.096,5.548,6.252,10.684,6.732v60.488
				c0,9.284-7.368,16.832-16.432,16.832c-1.204,0-2.176,0.996-2.176,2.232c0,1.236,0.972,2.232,2.176,2.232
				c11.464,0,20.788-9.548,20.788-21.292v-91.596C206.432,111.108,197.108,101.556,185.644,101.556z"/>
			<path d="M261.16,151.848c-1.204,0-2.176,0.996-2.176,2.232v26.652h-9.416l-0.004-6.508c0-1.236-0.976-2.232-2.176-2.232
				c-1.204,0-2.176,1-2.176,2.232l0.004,6.508h-1.564c-1.204,0-2.176,0.996-2.176,2.232c0,1.236,0.976,2.232,2.176,2.232h1.556
				l0.004,8.792l-8.696,0.076v-19.792c0-1.236-0.972-2.232-2.176-2.232c-1.204,0-2.176,0.996-2.176,2.232v19.832l-10.792,0.096
				v-9.008h8.4c1.204,0,2.18-0.996,2.18-2.232c0-1.232-0.976-2.232-2.18-2.232h-8.4v-68.164c0-2.856,2.268-5.176,5.052-5.176h27.5
				c2.788,0,5.056,2.32,5.056,5.176v15.148c0,1.232,0.972,2.232,2.176,2.232c1.204,0,2.176-0.996,2.176-2.232v-15.148
				c0-5.312-4.22-9.636-9.412-9.636h-27.5c-5.188,0-9.412,4.324-9.412,9.636v83.924c0,1.232,0.976,2.232,2.18,2.232
				c0.116,0,0.216-0.052,0.328-0.068c0.04,0.004,0.072,0.024,0.112,0.024h0.012l12.512-0.112v21.768l-10.792,0.192v-12.956
				c0-1.232-0.976-2.232-2.176-2.232c-1.204,0-2.18,0.996-2.18,2.232v18.772c0.008,5.308,4.232,9.636,9.42,9.636h27.5
				c5.188,0,9.412-4.324,9.412-9.64V154.08C263.336,152.844,262.364,151.848,261.16,151.848z M232.16,231.516h-5.736
				c-2.788,0-5.052-2.324-5.052-5.176v-1.352l10.788-0.192V231.516z M236.516,198.52l8.696-0.076v8.496l-8.696-0.02V198.52z
				 M236.516,231.52v-0.004v-6.796l8.7-0.152l0.004,6.952H236.516z M236.52,220.26v-8.876l8.696,0.02l0.004,8.7L236.52,220.26z
				 M258.976,206.968l-9.408-0.02l-0.004-8.544l9.412-0.088V206.968z M258.98,226.336c0,2.856-2.268,5.18-5.056,5.18h-4.352v-7.028
				l9.408-0.164V226.336z M258.98,219.86l-9.408,0.168l-0.004-8.616l9.412,0.02V219.86z M258.98,193.86l-9.416,0.084v-8.752h9.416
				V193.86z"/>
			<path d="M240.064,112.456c-5.644,0-10.244,4.708-10.244,10.492c0,5.788,4.596,10.492,10.244,10.492
				c5.648,0,10.244-4.708,10.244-10.492C250.308,117.16,245.712,112.456,240.064,112.456z M240.064,128.976
				c-3.244,0-5.884-2.704-5.884-6.032c0-3.324,2.64-6.028,5.884-6.028c3.244,0,5.884,2.708,5.884,6.028
				C245.952,126.272,243.312,128.976,240.064,128.976z"/>
			<path d="M240.064,136.6c-5.644,0-10.244,4.708-10.244,10.492c0,5.78,4.596,10.488,10.244,10.488
				c5.648,0,10.244-4.708,10.244-10.488C250.308,141.308,245.712,136.6,240.064,136.6z M240.064,153.116
				c-3.244,0-5.884-2.704-5.884-6.028c0-3.324,2.64-6.028,5.884-6.028c3.244,0,5.884,2.708,5.884,6.028
				C245.952,150.412,243.312,153.116,240.064,153.116z"/>
			<path d="M164.524,144.016c-0.856,0.76-1.592,1.468-2.264,2.116c-2.428,2.348-3.536,3.42-6.652,3.42
				c-3.2,0-3.952-0.748-5.968-2.752c-0.5-0.496-1.04-1.032-1.668-1.608c-0.904-0.828-2.288-0.744-3.1,0.18
				c-0.808,0.924-0.728,2.344,0.176,3.172c0.58,0.528,1.076,1.024,1.536,1.48c2.26,2.248,4.044,4.02,9.024,4.02
				c4.864,0,6.984-2.052,9.668-4.644c0.632-0.612,1.32-1.276,2.12-1.988c0.92-0.812,1.016-2.236,0.224-3.172
				C166.824,143.3,165.44,143.208,164.524,144.016z"/>
		</g>
	</g>
</g>
<g>
</g>
<g>
</g>
<g>
</g>
<g>
</g>
<g>
</g>
<g>
</g>
<g>
</g>
<g>
</g>
<g>
</g>
<g>
</g>
<g>
</g>
<g>
</g>
<g>
</g>
<g>
</g>
<g>
</g>
</svg>
