<?xml version="1.0" encoding="iso-8859-1"?>
<svg version="1.1" id="Layer_1" xmlns="http://www.w3.org/2000/svg" xmlns:xlink="http://www.w3.org/1999/xlink" x="0px" y="0px"
	 viewBox="0 0 512.001 512.001" style="enable-background:new 0 0 512.001 512.001;" xml:space="preserve">
<g style="opacity:0.1;enable-background:new;">
	<g>
		<path fill="#ffffff" d="M232.458,162.195v-11.203c0-2.876,2.352-5.228,5.228-5.228h-32.636c-2.876,0-5.228,2.352-5.228,5.228v11.203
			c0,2.876,2.352,5.228,5.228,5.228h32.636C234.81,167.423,232.458,165.07,232.458,162.195z"/>
	</g>
</g>
<g>
	<g>
		<path fill="#ffffff" d="M147.681,113.371H91.256c-4.329,0-7.837,3.508-7.837,7.837c0,4.329,3.508,7.837,7.837,7.837h56.424
			c4.329,0,7.837-3.508,7.837-7.837C155.518,116.879,152.01,113.371,147.681,113.371z"/>
	</g>
</g>
<g>
	<g>
		<path fill="#ffffff" d="M420.745,113.371h-56.424c-4.329,0-7.837,3.508-7.837,7.837c0,4.329,3.508,7.837,7.837,7.837h56.424
			c4.329,0,7.837-3.508,7.837-7.837C428.582,116.879,425.073,113.371,420.745,113.371z"/>
	</g>
</g>
<g>
	<g>
		<path fill="#ffffff" d="M153.126,494.743c-6.415-2.271-11.774-6.823-15.089-12.822c-1.379-2.496-4.006-4.045-6.859-4.045
			c-2.852,0-5.478,1.549-6.858,4.045c-4.914,8.886-14.242,14.405-24.347,14.405s-19.435-5.519-24.348-14.404
			c-2.094-3.787-6.864-5.159-10.65-3.067c-3.788,2.095-5.16,6.863-3.067,10.65C69.581,503.381,84.166,512,99.973,512
			c11.904,0,23.113-4.888,31.2-13.226c4.64,4.796,10.347,8.49,16.725,10.746c4.079,1.444,8.558-0.694,10.002-4.773
			C159.343,500.665,157.206,496.188,153.126,494.743z"/>
	</g>
</g>
<g>
	<g>
		<path fill="#ffffff" d="M447.026,478.856c-3.788-2.092-8.556-0.722-10.651,3.066c-4.913,8.886-14.245,14.405-24.351,14.405
			c-10.104,0-19.433-5.519-24.345-14.404c-1.379-2.496-4.006-4.045-6.858-4.045c-0.001,0-0.001,0-0.001,0
			c-2.852,0-5.477,1.549-6.858,4.044c-2.719,4.914-6.789,8.854-11.773,11.395c-3.916,1.998-8.148,3.01-12.575,3.01
			c-10.106,0-19.435-5.519-24.346-14.404c-1.379-2.495-4.006-4.045-6.858-4.045s-5.478,1.549-6.859,4.045
			c-4.91,8.885-14.242,14.404-24.35,14.404c-10.102,0-19.431-5.519-24.346-14.405c-1.379-2.496-4.006-4.044-6.859-4.044
			c-2.852,0-5.477,1.549-6.858,4.045c-4.913,8.885-14.242,14.404-24.347,14.404c-10.106,0-19.436-5.519-24.347-14.404
			c-1.379-2.495-4.006-4.045-6.858-4.045c-2.852,0-5.478,1.549-6.859,4.045c-2.993,5.414-7.754,9.732-13.406,12.162
			c-3.977,1.709-5.814,6.318-4.105,10.295c1.709,3.975,6.313,5.815,10.295,4.105c5.289-2.274,10.076-5.602,14.068-9.721
			c8.088,8.346,19.302,13.237,31.211,13.237c11.907,0,23.118-4.89,31.206-13.233c8.09,8.341,19.301,13.232,31.204,13.232
			c11.909,0,23.121-4.889,31.21-13.23c8.085,8.341,19.298,13.23,31.204,13.23c6.828,0,13.639-1.633,19.696-4.721
			c4.318-2.201,8.195-5.073,11.516-8.504c8.085,8.338,19.295,13.225,31.196,13.225c15.807,0,30.394-8.618,38.068-22.492
			C452.186,485.72,450.814,480.951,447.026,478.856z"/>
	</g>
</g>
<g>
	<g>
		<path fill="#ffffff" d="M423.16,172.548l-116.291-37.705v-28.721L423.16,68.417c4.116-1.335,6.373-5.755,5.037-9.872
			c-1.335-4.117-5.755-6.374-9.872-5.037L315.486,86.85v-7.024c0-7.205-5.861-13.064-13.065-13.064h-3.882l-32.921-45.917
			c-0.535-0.745-1.137-1.409-1.782-2.002V7.837C263.837,3.508,260.329,0,256,0s-7.837,3.508-7.837,7.837v11.006
			c-0.646,0.595-1.248,1.258-1.784,2.004l-32.918,45.915h-3.883c-7.205,0-13.064,5.86-13.064,13.064v7.024L93.673,53.506
			c-4.115-1.331-8.538,0.923-9.872,5.037c-1.334,4.117,0.922,8.537,5.037,9.872l116.29,37.705v28.721l-116.29,37.706
			c-4.116,1.335-6.373,5.755-5.037,9.872c1.074,3.314,4.148,5.421,7.453,5.421c0.801,0,1.616-0.123,2.419-0.383l98.31-31.876v6.612
			c0,7.205,5.86,13.064,13.064,13.064h0.987l-14.128,203.986h-14.508c-10.085,0-18.292,8.207-18.292,18.292v3.417h-37.48
			c-10.085,0-18.292,8.206-18.292,18.291v30.699c-1.109,0.136-2.229,0.215-3.361,0.215c-4.329,0-7.837,3.508-7.837,7.837
			c0,4.329,3.508,7.837,7.837,7.837c11.908,0,23.119-4.888,31.205-13.228c8.086,8.339,19.299,13.228,31.203,13.228
			c11.908,0,23.122-4.888,31.208-13.227c8.089,8.34,19.3,13.227,31.208,13.227c11.907,0,23.118-4.888,31.204-13.228
			c8.088,8.339,19.3,13.228,31.204,13.228c11.908,0,23.12-4.888,31.208-13.227c8.085,8.338,19.299,13.227,31.206,13.227
			c4.07,0,8.103-0.564,11.989-1.678c5.603-1.609,10.752-4.291,15.305-7.974c1.381-1.117,2.687-2.31,3.912-3.573
			c8.085,8.338,19.297,13.224,31.202,13.224c4.329,0,7.837-3.508,7.837-7.837c0-4.329-3.508-7.837-7.837-7.837
			c-1.133,0-2.253-0.079-3.361-0.215v-30.699c0-10.085-8.206-18.291-18.292-18.291h-37.481v-3.417
			c0-10.085-8.206-18.292-18.292-18.292H320.09l-4.143-59.804c-0.3-4.319-4.024-7.563-8.36-7.277c-4.318,0.3-7.576,4.042-7.277,8.36
			l0.75,10.818h-90.127l3.393-48.988h83.342l0.544,7.865c0.299,4.317,4.01,7.55,8.36,7.277c4.318-0.299,7.576-4.042,7.277-8.36
			l-7.887-113.877h0.986c7.205,0,13.064-5.86,13.064-13.064v-6.612l98.311,31.876c0.804,0.26,1.619,0.383,2.419,0.383
			c3.305,0,6.378-2.109,7.453-5.421C429.532,178.303,427.276,173.884,423.16,172.548z M256,34.329l23.253,32.434h-46.506L256,34.329
			z M212.188,82.436h87.624v5.986h-87.624V82.436z M257.995,111.919h-3.989c-10.085,0-18.292,8.207-18.292,18.292v7.717h-14.912
			v-33.833h70.396v33.833h-14.912v-7.717C276.287,120.126,268.08,111.919,257.995,111.919z M260.613,130.211v7.717h-9.226v-7.717
			c0-1.419,1.198-2.619,2.619-2.619h3.989C259.414,127.593,260.613,128.792,260.613,130.211z M334.601,394.918
			c1.419,0,2.619,1.2,2.619,2.619v3.417h-28.974c-4.329,0-7.837,3.508-7.837,7.837c0,4.329,3.508,7.837,7.837,7.837h82.129
			c1.419,0,2.619,1.2,2.619,2.617v23.334c-2.08-1.958-3.887-4.241-5.312-6.819c-1.379-2.496-4.007-4.045-6.86-4.045
			s-5.479,1.55-6.858,4.047c-1.755,3.175-4.078,5.945-6.907,8.234c-2.91,2.354-6.199,4.069-9.771,5.093
			c-2.479,0.712-5.058,1.071-7.666,1.071c-10.108,0-19.438-5.517-24.348-14.399c-1.379-2.497-4.006-4.046-6.858-4.046
			s-5.478,1.549-6.859,4.045c-4.911,8.883-14.241,14.4-24.35,14.4c-10.104,0-19.434-5.518-24.348-14.401
			c-1.379-2.496-4.007-4.044-6.859-4.044c-2.852,0-5.477,1.55-6.858,4.046c-4.91,8.882-14.239,14.399-24.345,14.399
			c-10.107,0-19.437-5.517-24.348-14.4c-1.379-2.496-4.006-4.045-6.859-4.045c-2.849,0-5.476,1.55-6.856,4.045
			c-4.911,8.883-14.241,14.4-24.35,14.4c-10.104,0-19.434-5.518-24.346-14.401c-1.38-2.495-4.007-4.044-6.86-4.044
			c-2.852,0-5.477,1.55-6.858,4.046c-1.425,2.578-3.232,4.861-5.311,6.818v-23.334c0-1.418,1.199-2.617,2.619-2.617h155.271
			c4.329,0,7.837-3.508,7.837-7.837c0-4.329-3.508-7.837-7.837-7.837H174.78v-3.417c0-1.419,1.198-2.619,2.619-2.619H334.601z
			 M302.148,347.016l2.233,32.229h-96.762l2.231-32.229H302.148z M215.414,266.682l2.911-42.026h75.35l2.91,42.026H215.414z
			 M304.342,159.585h-20.13c-4.329,0-7.837,3.508-7.837,7.837s3.508,7.837,7.837,7.837h6.042l2.334,33.723h-73.177l2.336-33.723
			h35.298c4.329,0,7.837-3.508,7.837-7.837s-3.508-7.837-7.837-7.837h-49.388v-5.984h96.685V159.585z"/>
	</g>
</g>
</svg>
